<svg width="171" height="26" fill="none" xmlns="http://www.w3.org/2000/svg"><path d="M7.415 25.621c-.63.491-1.275.505-1.933.041-.657-.464-.877-1.078-.657-1.842l2.343-7.572-5.962-4.215C.55 11.569.35 10.955.611 10.19c.26-.764.787-1.146 1.582-1.146h7.36l2.384-7.858c.137-.382.35-.676.638-.88.288-.205.596-.307.925-.307.329 0 .637.102.924.306.288.205.5.499.638.88l2.385 7.86h7.359c.795 0 1.323.381 1.584 1.145.26.764.06 1.378-.597 1.842l-5.962 4.216 2.344 7.571c.219.764 0 1.378-.658 1.842-.658.464-1.302.45-1.933-.04L13.5 20.995 7.415 25.62Zm36 0c-.63.491-1.275.505-1.933.041-.657-.464-.877-1.078-.657-1.842l2.343-7.572-5.962-4.215c-.657-.464-.856-1.078-.595-1.842.26-.764.787-1.146 1.582-1.146h7.36l2.384-7.858c.137-.382.35-.676.638-.88.288-.205.596-.307.925-.307.328 0 .637.102.924.306.288.205.5.499.638.88l2.385 7.86h7.359c.795 0 1.323.381 1.584 1.145.26.764.06 1.378-.597 1.842l-5.962 4.216 2.344 7.571c.219.764 0 1.378-.658 1.842-.658.464-1.302.45-1.933-.04L49.5 20.995l-6.085 4.625Zm36 0c-.63.491-1.275.505-1.933.041-.657-.464-.877-1.078-.657-1.842l2.343-7.572-5.962-4.215c-.657-.464-.856-1.078-.595-1.842.26-.764.787-1.146 1.582-1.146h7.36l2.384-7.858c.137-.382.35-.676.638-.88.288-.205.596-.307.925-.307.329 0 .637.102.924.306.288.205.5.499.638.88l2.385 7.86h7.359c.795 0 1.323.381 1.584 1.145.26.764.06 1.378-.597 1.842l-5.962 4.216 2.344 7.571c.219.764 0 1.378-.658 1.842-.658.464-1.302.45-1.933-.04L85.5 20.995l-6.085 4.625Zm36 0c-.631.491-1.275.505-1.933.041-.657-.464-.877-1.078-.657-1.842l2.343-7.572-5.962-4.215c-.657-.464-.856-1.078-.595-1.842.26-.764.787-1.146 1.582-1.146h7.36l2.384-7.858c.137-.382.35-.676.638-.88A1.57 1.57 0 0 1 121.5 0c.328 0 .637.102.924.306.288.205.501.499.638.88l2.385 7.86h7.359c.795 0 1.323.381 1.584 1.145.259.764.06 1.378-.597 1.842l-5.962 4.216 2.344 7.571c.219.764 0 1.378-.658 1.842-.658.464-1.302.45-1.933-.04l-6.084-4.626-6.085 4.625Zm36 0c-.631.491-1.275.505-1.933.041-.657-.464-.877-1.078-.657-1.842l2.343-7.572-5.962-4.215c-.657-.464-.856-1.078-.595-1.842.26-.764.787-1.146 1.582-1.146h7.36l2.384-7.858c.137-.382.35-.676.638-.88A1.57 1.57 0 0 1 157.5 0c.328 0 .637.102.924.306.288.205.501.499.638.88l2.385 7.86h7.359c.795 0 1.323.381 1.584 1.145.259.764.06 1.378-.597 1.842l-5.962 4.216 2.344 7.571c.219.764 0 1.378-.658 1.842-.658.464-1.302.45-1.933-.04l-6.084-4.626-6.085 4.625Z" fill="#070707"/></svg>