<svg xmlns="http://www.w3.org/2000/svg" width="81" height="80" fill="none" viewBox="0 0 81 80">
  <path fill="#BC85F3" d="M80.5 0H.5v80h80V0Z"/>
  <path fill="#252653" d="M73.796 6.704H7.205v66.591h66.59V6.705Z"/>
  <path fill="#BC85F3" fill-rule="evenodd" d="m32.663 49.183 2.787 9.268h7.826L32.162 21.148c-.02-.067-.073-.114-.181-.114l-9.196-.026c-.357 0-.367.187-.336.54.113 1.285.051 2.003-.212 3.007l-9.853 33.902 7.423-.01 2.31-9.27 10.546.006Zm-1.333-6.72h-7.62l3.696-15.016 3.924 15.016Zm21.075 3.708 14.365.021c.905-1.165 1.07-3.355 1.044-4.79-.098-5.826-3.933-11.401-10.86-11.438-11.631-.067-13.833 14.73-9.874 23.265 1.246 2.684 3.748 4.39 6.684 5.202 1.34.369 2.76.556 4.198.561 2.843.01 5.732-.681 8.053-2.012.037-.021.099-.021.104-.063v-.166l-.005-4.822c0-.218-.166-.343-.414-.265-2.936.89-12.882 3.73-13.342-5.222-.005-.068-.02-.27.047-.27Zm7.2-4.832h-7.314c.036-3.91 1.82-6.132 4.575-6.142 2.502-.01 4.094 1.737 4.172 6.049v.093h-1.432Z" clip-rule="evenodd"/>
</svg>
