<svg xmlns="http://www.w3.org/2000/svg" width="81" height="80" fill="none" viewBox="0 0 81 80">
  <path fill="#FF7C00" d="M80.5 0H.5v80h80V0Z"/>
  <path fill="#261300" d="M73.796 6.704H7.205v66.591h66.59V6.705Z"/>
  <path fill="#FF7C00" d="M60.459 32.045h-6.317a.296.296 0 0 0-.295.296v26.095c0 .164.132.296.295.296h6.317a.296.296 0 0 0 .294-.296V32.34a.296.296 0 0 0-.294-.296ZM57.3 28.518c2.027 0 3.67-1.58 3.67-3.531 0-1.95-1.643-3.532-3.67-3.532s-3.67 1.581-3.67 3.532c0 1.95 1.643 3.531 3.67 3.531Z"/>
  <path fill="#FF7C00" fill-rule="evenodd" d="m40.195 49.401 2.59 8.63c.134.509.398.634.755.629h6.632c.512.005.548-.151.47-.495L39.688 21.403c-.02-.067-.072-.114-.175-.114l-9.186-.026c-.362 0-.367.187-.336.54.114 1.28.052 1.998-.217 3.002l-9.698 33.381c-.103.317-.077.474.336.479l6.26-.005c.662-.021.698-.203.812-.536l2.17-8.723h10.541Zm-1.339-6.71h-7.604l3.686-15 3.918 15Z" clip-rule="evenodd"/>
</svg>
