<svg xmlns="http://www.w3.org/2000/svg" width="55" height="80" fill="none" viewBox="0 0 55 80">
  <path fill="#0ACF83" d="M14.167 80c7.36 0 13.333-5.974 13.333-13.334V53.333H14.167c-7.36 0-13.334 5.973-13.334 13.333S6.807 80 14.167 80Z"/>
  <path fill="#A259FF" d="M.833 40c0-7.36 5.974-13.333 13.334-13.333H27.5v26.667H14.167C6.807 53.334.833 47.36.833 40Z"/>
  <path fill="#F24E1E" d="M.833 13.333C.833 5.973 6.807 0 14.167 0H27.5v26.667H14.167c-7.36 0-13.334-5.974-13.334-13.334Z"/>
  <path fill="#FF7262" d="M27.5 0h13.333c7.36 0 13.334 5.973 13.334 13.333s-5.974 13.334-13.334 13.334H27.5V0Z"/>
  <path fill="#1ABCFE" d="M54.167 40c0 7.36-5.974 13.334-13.334 13.334C33.473 53.334 27.5 47.36 27.5 40c0-7.36 5.973-13.333 13.333-13.333S54.167 32.64 54.167 40Z"/>
</svg>
