<svg xmlns="http://www.w3.org/2000/svg" width="81" height="80" fill="none" viewBox="0 0 81 80">
  <path fill="#87BCF6" d="M80.5 0H.5v80h80V0Z"/>
  <path fill="#252653" d="M73.796 6.704H7.205v66.591h66.59V6.705Z"/>
  <path fill="#87BCF6" fill-rule="evenodd" d="M59.813 31.452c-5.925-3.006-16.123-1.55-16.123 6.293 0 5.841 4.016 8.14 8.927 10.07 6.978 2.741.196 7.921-8.323 2.564 0 0-.305-.15-.455 0-.15.151-.15.302-.15.458v5.628c2.978 1.534 5.2 2.314 8.638 2.278 11.089-.115 12.686-10.798 6.788-14.907-1.07-.749-3.934-2.242-4.839-2.59-4.688-1.8-4.29-4.359-2.802-5.649 1.644-1.43 6.204.734 8.121 1.94 1.163.723 1.355-.176 1.35-.967l-.016-3.74c0-.89-.305-.962-1.117-1.378ZM25.57 40.793v-13.7c0-.067.238-.301.3-.301 5.769-.297 9.051.837 9.346 7.037.336 7.115-5.593 7.266-9.646 7.266v-.302Zm-6.958-19.026v36.83h6.958v-11.87c8.55.615 16.263-2.47 16.263-12.414 0-4.01-1.24-8.047-4.182-10.486-4.11-3.412-13.714-2.653-19.039-2.06Z" clip-rule="evenodd"/>
</svg>
