<svg width="972" height="230" viewBox="0 0 972 230" fill="none" xmlns="http://www.w3.org/2000/svg">
<path d="M125.5 0H45.5V80H125.5V0Z" fill="#87BCF6"/>
<path d="M118.796 6.7041H52.2047V73.2953H118.796V6.7041Z" fill="#252653"/>
<path fill-rule="evenodd" clip-rule="evenodd" d="M104.812 31.4519C98.8885 28.4456 88.6895 29.9019 88.6895 37.7454C88.6895 43.5863 92.706 45.8853 97.6168 47.8149C104.595 50.556 97.8133 55.7364 89.2943 50.3791C89.2943 50.3791 88.9893 50.2283 88.8394 50.3791C88.6895 50.53 88.6895 50.6808 88.6895 50.8368C88.6895 50.9877 88.6895 56.4646 88.6895 56.4646C91.667 57.9989 93.8898 58.7791 97.3274 58.7427C108.415 58.6283 110.013 47.945 104.115 43.836C103.045 43.087 100.181 41.5943 99.2762 41.2458C94.5876 39.4462 94.9857 36.8872 96.4744 35.5973C98.1183 34.1669 102.678 36.3306 104.595 37.5373C105.758 38.2603 105.95 37.3605 105.945 36.5699L105.929 32.8302C105.929 31.9408 105.624 31.868 104.812 31.4519ZM70.5711 40.7933V27.0933C70.5711 27.0256 70.8089 26.7916 70.8709 26.7916C76.6398 26.4951 79.9223 27.629 80.217 33.8288C80.553 40.9441 74.6238 41.095 70.5711 41.095V40.7933ZM63.6132 21.7672V58.5971H70.5711V46.7279C79.1211 47.3416 86.8337 44.2573 86.8337 34.3126C86.8337 30.3024 85.5931 26.2663 82.6517 23.8269C78.5421 20.4149 68.9376 21.1743 63.6132 21.7672Z" fill="#87BCF6"/>
<path d="M70.1539 120L69.4293 117.621H65.7857L65.0611 120H62.7779L66.3052 109.965H68.8961L72.4371 120H70.1539ZM68.9234 115.844L68.1988 113.52C68.1532 113.365 68.0917 113.166 68.0142 112.925C67.9413 112.679 67.8661 112.43 67.7886 112.18C67.7157 111.924 67.6565 111.703 67.6109 111.517C67.5653 111.703 67.5015 111.936 67.4195 112.214C67.342 112.487 67.2668 112.747 67.1939 112.993C67.121 113.239 67.0686 113.415 67.0367 113.52L66.3189 115.844H68.9234ZM76.2376 120.137C75.3854 120.137 74.6904 119.804 74.1526 119.139C73.6194 118.469 73.3528 117.487 73.3528 116.192C73.3528 114.884 73.624 113.896 74.1663 113.226C74.7086 112.551 75.4173 112.214 76.2923 112.214C76.6569 112.214 76.9781 112.264 77.2561 112.364C77.5341 112.465 77.7734 112.599 77.9739 112.768C78.179 112.936 78.3522 113.125 78.4934 113.335H78.5618C78.5345 113.189 78.5003 112.975 78.4593 112.692C78.4228 112.405 78.4046 112.111 78.4046 111.811V109.363H80.4964V120H78.8968L78.4934 119.009H78.4046C78.2724 119.218 78.1061 119.41 77.9055 119.583C77.7096 119.752 77.4749 119.886 77.2014 119.986C76.928 120.087 76.6067 120.137 76.2376 120.137ZM76.969 118.476C77.5387 118.476 77.9397 118.307 78.1721 117.97C78.4091 117.628 78.5345 117.115 78.5481 116.432V116.206C78.5481 115.463 78.4342 114.896 78.2063 114.504C77.9785 114.107 77.5546 113.909 76.9348 113.909C76.4746 113.909 76.1145 114.107 75.8548 114.504C75.595 114.9 75.4651 115.472 75.4651 116.22C75.4651 116.967 75.595 117.53 75.8548 117.908C76.1191 118.286 76.4905 118.476 76.969 118.476ZM89.9023 116.165C89.9023 116.803 89.8158 117.368 89.6426 117.86C89.474 118.353 89.2256 118.77 88.8975 119.111C88.5739 119.449 88.182 119.704 87.7217 119.877C87.266 120.05 86.751 120.137 86.1768 120.137C85.639 120.137 85.1445 120.05 84.6934 119.877C84.2467 119.704 83.8571 119.449 83.5244 119.111C83.1963 118.77 82.9411 118.353 82.7588 117.86C82.5811 117.368 82.4922 116.803 82.4922 116.165C82.4922 115.317 82.6426 114.6 82.9434 114.012C83.2441 113.424 83.6725 112.977 84.2285 112.672C84.7845 112.367 85.4476 112.214 86.2178 112.214C86.9333 112.214 87.5667 112.367 88.1182 112.672C88.6742 112.977 89.1094 113.424 89.4238 114.012C89.7428 114.6 89.9023 115.317 89.9023 116.165ZM84.6182 116.165C84.6182 116.666 84.6729 117.088 84.7822 117.43C84.8916 117.771 85.0625 118.029 85.2949 118.202C85.5273 118.375 85.8304 118.462 86.2041 118.462C86.5732 118.462 86.8717 118.375 87.0996 118.202C87.332 118.029 87.5007 117.771 87.6055 117.43C87.7148 117.088 87.7695 116.666 87.7695 116.165C87.7695 115.659 87.7148 115.24 87.6055 114.907C87.5007 114.57 87.332 114.317 87.0996 114.148C86.8672 113.98 86.5641 113.896 86.1904 113.896C85.639 113.896 85.238 114.085 84.9873 114.463C84.7412 114.841 84.6182 115.409 84.6182 116.165ZM93.99 109.363V111.838C93.99 112.125 93.9808 112.41 93.9626 112.692C93.9489 112.975 93.9307 113.194 93.9079 113.349H93.99C94.1905 113.034 94.4639 112.768 94.8103 112.549C95.1566 112.326 95.6055 112.214 96.157 112.214C97.0137 112.214 97.7087 112.549 98.2419 113.219C98.7751 113.889 99.0417 114.871 99.0417 116.165C99.0417 117.035 98.9187 117.767 98.6726 118.359C98.4265 118.947 98.0824 119.392 97.6404 119.692C97.1983 119.989 96.6856 120.137 96.1023 120.137C95.5417 120.137 95.0997 120.036 94.7761 119.836C94.4525 119.635 94.1905 119.41 93.99 119.159H93.8464L93.4978 120H91.905V109.363H93.99ZM95.487 113.882C95.1224 113.882 94.8331 113.957 94.6189 114.107C94.4047 114.258 94.2474 114.483 94.1472 114.784C94.0515 115.085 93.9991 115.465 93.99 115.926V116.151C93.99 116.894 94.0993 117.464 94.3181 117.86C94.5368 118.252 94.9356 118.448 95.5144 118.448C95.9428 118.448 96.2823 118.25 96.5329 117.854C96.7881 117.457 96.9157 116.885 96.9157 116.138C96.9157 115.39 96.7881 114.827 96.5329 114.449C96.2777 114.071 95.9291 113.882 95.487 113.882ZM104.196 112.214C104.902 112.214 105.511 112.351 106.021 112.624C106.531 112.893 106.926 113.285 107.204 113.8C107.482 114.315 107.621 114.944 107.621 115.687V116.698H102.692C102.715 117.286 102.89 117.749 103.218 118.086C103.551 118.419 104.011 118.585 104.599 118.585C105.087 118.585 105.533 118.535 105.939 118.435C106.345 118.334 106.761 118.184 107.19 117.983V119.597C106.812 119.784 106.415 119.92 106 120.007C105.59 120.093 105.091 120.137 104.503 120.137C103.738 120.137 103.059 119.995 102.466 119.713C101.878 119.43 101.416 119 101.079 118.421C100.746 117.842 100.58 117.113 100.58 116.233C100.58 115.34 100.73 114.597 101.031 114.005C101.336 113.408 101.76 112.961 102.302 112.665C102.845 112.364 103.476 112.214 104.196 112.214ZM104.209 113.697C103.804 113.697 103.467 113.827 103.198 114.087C102.933 114.347 102.781 114.755 102.74 115.311H105.665C105.661 115.001 105.604 114.725 105.495 114.483C105.39 114.242 105.23 114.05 105.016 113.909C104.806 113.768 104.538 113.697 104.209 113.697ZM51.2804 129.006C52.5701 129.006 53.5112 129.284 54.1036 129.84C54.6961 130.391 54.9923 131.152 54.9923 132.123C54.9923 132.561 54.9262 132.98 54.7941 133.381C54.6619 133.777 54.4454 134.131 54.1446 134.44C53.8484 134.75 53.4519 134.996 52.9552 135.179C52.4585 135.356 51.8455 135.445 51.1163 135.445H50.2071V139H48.088V129.006H51.2804ZM51.171 130.742H50.2071V133.709H50.9044C51.3009 133.709 51.645 133.657 51.9366 133.552C52.2283 133.447 52.4539 133.283 52.6134 133.06C52.7729 132.836 52.8527 132.549 52.8527 132.198C52.8527 131.706 52.7159 131.341 52.4425 131.104C52.1691 130.863 51.7452 130.742 51.171 130.742ZM59.0799 128.363V130.53C59.0799 130.909 59.0663 131.269 59.0389 131.61C59.0161 131.952 58.9979 132.194 58.9842 132.335H59.0936C59.2577 132.071 59.4513 131.856 59.6746 131.692C59.9025 131.528 60.1532 131.408 60.4266 131.33C60.7 131.253 60.994 131.214 61.3084 131.214C61.8599 131.214 62.3407 131.312 62.7508 131.508C63.161 131.699 63.48 132.002 63.7079 132.417C63.9357 132.827 64.0496 133.36 64.0496 134.017V139H61.9647V134.536C61.9647 133.989 61.8644 133.577 61.6639 133.299C61.4634 133.021 61.1535 132.882 60.7342 132.882C60.3149 132.882 59.9845 132.98 59.743 133.176C59.5015 133.367 59.3306 133.652 59.2303 134.03C59.1301 134.404 59.0799 134.862 59.0799 135.404V139H56.995V128.363H59.0799ZM73.4214 135.165C73.4214 135.803 73.3349 136.368 73.1617 136.86C72.9931 137.353 72.7447 137.77 72.4166 138.111C72.093 138.449 71.7011 138.704 71.2408 138.877C70.7851 139.05 70.2701 139.137 69.6959 139.137C69.1581 139.137 68.6636 139.05 68.2125 138.877C67.7658 138.704 67.3762 138.449 67.0435 138.111C66.7154 137.77 66.4602 137.353 66.2779 136.86C66.1002 136.368 66.0113 135.803 66.0113 135.165C66.0113 134.317 66.1617 133.6 66.4625 133.012C66.7632 132.424 67.1916 131.977 67.7476 131.672C68.3036 131.367 68.9667 131.214 69.7369 131.214C70.4524 131.214 71.0858 131.367 71.6373 131.672C72.1933 131.977 72.6285 132.424 72.9429 133.012C73.2619 133.6 73.4214 134.317 73.4214 135.165ZM68.1373 135.165C68.1373 135.666 68.192 136.088 68.3013 136.43C68.4107 136.771 68.5816 137.029 68.814 137.202C69.0464 137.375 69.3495 137.462 69.7232 137.462C70.0923 137.462 70.3908 137.375 70.6187 137.202C70.8511 137.029 71.0198 136.771 71.1246 136.43C71.2339 136.088 71.2886 135.666 71.2886 135.165C71.2886 134.659 71.2339 134.24 71.1246 133.907C71.0198 133.57 70.8511 133.317 70.6187 133.148C70.3863 132.98 70.0832 132.896 69.7095 132.896C69.1581 132.896 68.7571 133.085 68.5064 133.463C68.2603 133.841 68.1373 134.409 68.1373 135.165ZM78.6438 137.476C78.8717 137.476 79.0927 137.453 79.3069 137.407C79.5257 137.362 79.7421 137.305 79.9563 137.236V138.788C79.733 138.888 79.455 138.97 79.1223 139.034C78.7942 139.103 78.4342 139.137 78.0423 139.137C77.5865 139.137 77.1764 139.064 76.8118 138.918C76.4518 138.768 76.1669 138.51 75.9573 138.146C75.7522 137.776 75.6497 137.264 75.6497 136.607V132.923H74.6516V132.041L75.8001 131.344L76.4016 129.73H77.7346V131.357H79.8743V132.923H77.7346V136.607C77.7346 136.899 77.8167 137.118 77.9807 137.264C78.1494 137.405 78.3704 137.476 78.6438 137.476ZM88.7334 135.165C88.7334 135.803 88.6468 136.368 88.4736 136.86C88.305 137.353 88.0566 137.77 87.7285 138.111C87.4049 138.449 87.013 138.704 86.5527 138.877C86.097 139.05 85.582 139.137 85.0078 139.137C84.4701 139.137 83.9756 139.05 83.5244 138.877C83.0778 138.704 82.6882 138.449 82.3555 138.111C82.0273 137.77 81.7721 137.353 81.5898 136.86C81.4121 136.368 81.3232 135.803 81.3232 135.165C81.3232 134.317 81.4736 133.6 81.7744 133.012C82.0752 132.424 82.5036 131.977 83.0596 131.672C83.6156 131.367 84.2786 131.214 85.0488 131.214C85.7643 131.214 86.3978 131.367 86.9492 131.672C87.5052 131.977 87.9404 132.424 88.2549 133.012C88.5739 133.6 88.7334 134.317 88.7334 135.165ZM83.4492 135.165C83.4492 135.666 83.5039 136.088 83.6133 136.43C83.7227 136.771 83.8936 137.029 84.126 137.202C84.3584 137.375 84.6615 137.462 85.0352 137.462C85.4043 137.462 85.7028 137.375 85.9307 137.202C86.1631 137.029 86.3317 136.771 86.4365 136.43C86.5459 136.088 86.6006 135.666 86.6006 135.165C86.6006 134.659 86.5459 134.24 86.4365 133.907C86.3317 133.57 86.1631 133.317 85.9307 133.148C85.6982 132.98 85.3952 132.896 85.0215 132.896C84.4701 132.896 84.069 133.085 83.8184 133.463C83.5723 133.841 83.4492 134.409 83.4492 135.165ZM96.0681 136.73C96.0681 137.25 95.945 137.69 95.6989 138.05C95.4574 138.405 95.0951 138.676 94.612 138.863C94.129 139.046 93.5274 139.137 92.8073 139.137C92.2741 139.137 91.8161 139.103 91.4333 139.034C91.0551 138.966 90.6723 138.852 90.2849 138.692V136.97C90.6996 137.157 91.1439 137.312 91.6179 137.435C92.0964 137.553 92.5157 137.612 92.8757 137.612C93.2813 137.612 93.5707 137.553 93.7439 137.435C93.9216 137.312 94.0105 137.152 94.0105 136.956C94.0105 136.828 93.974 136.715 93.9011 136.614C93.8327 136.509 93.6823 136.393 93.4499 136.266C93.2175 136.133 92.8529 135.963 92.3562 135.753C91.8777 135.552 91.4835 135.35 91.1736 135.145C90.8682 134.939 90.6404 134.698 90.49 134.42C90.3441 134.137 90.2712 133.78 90.2712 133.347C90.2712 132.64 90.5447 132.109 91.0915 131.754C91.643 131.394 92.379 131.214 93.2995 131.214C93.7735 131.214 94.2247 131.262 94.653 131.357C95.086 131.453 95.5303 131.606 95.9861 131.815L95.3572 133.319C94.9789 133.155 94.6211 133.021 94.2839 132.916C93.9512 132.811 93.6117 132.759 93.2654 132.759C92.96 132.759 92.7299 132.8 92.5749 132.882C92.42 132.964 92.3425 133.089 92.3425 133.258C92.3425 133.381 92.3812 133.49 92.4587 133.586C92.5407 133.682 92.6957 133.789 92.9236 133.907C93.156 134.021 93.4955 134.169 93.9421 134.352C94.3751 134.529 94.751 134.716 95.07 134.912C95.3891 135.104 95.6351 135.343 95.8083 135.63C95.9815 135.912 96.0681 136.279 96.0681 136.73ZM100.06 128.363V130.53C100.06 130.909 100.046 131.269 100.019 131.61C99.9962 131.952 99.978 132.194 99.9643 132.335H100.074C100.238 132.071 100.431 131.856 100.655 131.692C100.883 131.528 101.133 131.408 101.407 131.33C101.68 131.253 101.974 131.214 102.289 131.214C102.84 131.214 103.321 131.312 103.731 131.508C104.141 131.699 104.46 132.002 104.688 132.417C104.916 132.827 105.03 133.36 105.03 134.017V139H102.945V134.536C102.945 133.989 102.845 133.577 102.644 133.299C102.443 133.021 102.134 132.882 101.714 132.882C101.295 132.882 100.965 132.98 100.723 133.176C100.482 133.367 100.311 133.652 100.21 134.03C100.11 134.404 100.06 134.862 100.06 135.404V139H97.975V128.363H100.06ZM114.402 135.165C114.402 135.803 114.315 136.368 114.142 136.86C113.973 137.353 113.725 137.77 113.397 138.111C113.073 138.449 112.681 138.704 112.221 138.877C111.765 139.05 111.25 139.137 110.676 139.137C110.138 139.137 109.644 139.05 109.193 138.877C108.746 138.704 108.356 138.449 108.024 138.111C107.695 137.77 107.44 137.353 107.258 136.86C107.08 136.368 106.991 135.803 106.991 135.165C106.991 134.317 107.142 133.6 107.443 133.012C107.743 132.424 108.172 131.977 108.728 131.672C109.284 131.367 109.947 131.214 110.717 131.214C111.432 131.214 112.066 131.367 112.617 131.672C113.173 131.977 113.609 132.424 113.923 133.012C114.242 133.6 114.402 134.317 114.402 135.165ZM109.117 135.165C109.117 135.666 109.172 136.088 109.281 136.43C109.391 136.771 109.562 137.029 109.794 137.202C110.027 137.375 110.33 137.462 110.703 137.462C111.072 137.462 111.371 137.375 111.599 137.202C111.831 137.029 112 136.771 112.105 136.43C112.214 136.088 112.269 135.666 112.269 135.165C112.269 134.659 112.214 134.24 112.105 133.907C112 133.57 111.831 133.317 111.599 133.148C111.366 132.98 111.063 132.896 110.69 132.896C110.138 132.896 109.737 133.085 109.486 133.463C109.24 133.841 109.117 134.409 109.117 135.165ZM120.656 131.214C121.517 131.214 122.212 131.549 122.741 132.219C123.274 132.889 123.541 133.871 123.541 135.165C123.541 136.031 123.416 136.76 123.165 137.353C122.914 137.94 122.568 138.385 122.126 138.686C121.684 138.986 121.176 139.137 120.601 139.137C120.232 139.137 119.916 139.091 119.651 139C119.387 138.904 119.161 138.784 118.974 138.638C118.788 138.487 118.626 138.328 118.489 138.159H118.38C118.416 138.341 118.444 138.528 118.462 138.72C118.48 138.911 118.489 139.098 118.489 139.28V142.363H116.404V131.357H118.099L118.393 132.349H118.489C118.626 132.144 118.792 131.954 118.988 131.781C119.184 131.608 119.419 131.471 119.692 131.371C119.97 131.266 120.292 131.214 120.656 131.214ZM119.986 132.882C119.622 132.882 119.332 132.957 119.118 133.107C118.904 133.258 118.747 133.483 118.646 133.784C118.551 134.085 118.498 134.465 118.489 134.926V135.151C118.489 135.644 118.535 136.061 118.626 136.402C118.722 136.744 118.879 137.004 119.098 137.182C119.321 137.359 119.626 137.448 120.014 137.448C120.333 137.448 120.595 137.359 120.8 137.182C121.005 137.004 121.157 136.744 121.258 136.402C121.363 136.056 121.415 135.634 121.415 135.138C121.415 134.39 121.299 133.827 121.066 133.449C120.834 133.071 120.474 132.882 119.986 132.882Z" fill="#828282"/>
<path d="M7.41471 228.621C6.78429 229.112 6.14017 229.126 5.48235 228.662C4.82453 228.198 4.60525 227.584 4.82452 226.82L7.16802 219.249L1.20649 215.033C0.54867 214.569 0.350226 213.955 0.611163 213.191C0.871003 212.427 1.39836 212.045 2.19323 212.045H9.55263L11.9372 204.187C12.0743 203.805 12.287 203.511 12.5753 203.306C12.8626 203.102 13.1707 203 13.4996 203C13.8285 203 14.1366 203.102 14.4238 203.306C14.7122 203.511 14.9249 203.805 15.0619 204.187L17.4465 212.045H24.8059C25.6008 212.045 26.1287 212.427 26.3896 213.191C26.6495 213.955 26.4505 214.569 25.7927 215.033L19.8311 219.249L22.1746 226.82C22.3939 227.584 22.1746 228.198 21.5168 228.662C20.859 229.126 20.2149 229.112 19.5844 228.621L13.4996 223.996L7.41471 228.621Z" fill="#070707"/>
<path d="M43.4147 228.621C42.7843 229.112 42.1402 229.126 41.4823 228.662C40.8245 228.198 40.6053 227.584 40.8245 226.82L43.168 219.249L37.2065 215.033C36.5487 214.569 36.3502 213.955 36.6112 213.191C36.871 212.427 37.3984 212.045 38.1932 212.045H45.5526L47.9372 204.187C48.0743 203.805 48.287 203.511 48.5753 203.306C48.8626 203.102 49.1707 203 49.4996 203C49.8285 203 50.1366 203.102 50.4238 203.306C50.7122 203.511 50.9249 203.805 51.0619 204.187L53.4465 212.045H60.8059C61.6008 212.045 62.1287 212.427 62.3896 213.191C62.6495 213.955 62.4505 214.569 61.7927 215.033L55.8311 219.249L58.1746 226.82C58.3939 227.584 58.1746 228.198 57.5168 228.662C56.859 229.126 56.2149 229.112 55.5844 228.621L49.4996 223.996L43.4147 228.621Z" fill="#070707"/>
<path d="M79.4147 228.621C78.7843 229.112 78.1402 229.126 77.4823 228.662C76.8245 228.198 76.6053 227.584 76.8245 226.82L79.168 219.249L73.2065 215.033C72.5487 214.569 72.3502 213.955 72.6112 213.191C72.871 212.427 73.3984 212.045 74.1932 212.045H81.5526L83.9372 204.187C84.0743 203.805 84.287 203.511 84.5753 203.306C84.8626 203.102 85.1707 203 85.4996 203C85.8285 203 86.1366 203.102 86.4238 203.306C86.7122 203.511 86.9249 203.805 87.0619 204.187L89.4465 212.045H96.8059C97.6008 212.045 98.1287 212.427 98.3896 213.191C98.6495 213.955 98.4505 214.569 97.7927 215.033L91.8311 219.249L94.1746 226.82C94.3939 227.584 94.1746 228.198 93.5168 228.662C92.859 229.126 92.2149 229.112 91.5844 228.621L85.4996 223.996L79.4147 228.621Z" fill="#E5E5E5"/>
<path d="M115.415 228.621C114.784 229.112 114.14 229.126 113.482 228.662C112.825 228.198 112.605 227.584 112.825 226.82L115.168 219.249L109.206 215.033C108.549 214.569 108.35 213.955 108.611 213.191C108.871 212.427 109.398 212.045 110.193 212.045H117.553L119.937 204.187C120.074 203.805 120.287 203.511 120.575 203.306C120.863 203.102 121.171 203 121.5 203C121.828 203 122.137 203.102 122.424 203.306C122.712 203.511 122.925 203.805 123.062 204.187L125.447 212.045H132.806C133.601 212.045 134.129 212.427 134.39 213.191C134.649 213.955 134.45 214.569 133.793 215.033L127.831 219.249L130.175 226.82C130.394 227.584 130.175 228.198 129.517 228.662C128.859 229.126 128.215 229.112 127.584 228.621L121.5 223.996L115.415 228.621Z" fill="#E5E5E5"/>
<path d="M151.415 228.621C150.784 229.112 150.14 229.126 149.482 228.662C148.825 228.198 148.605 227.584 148.825 226.82L151.168 219.249L145.206 215.033C144.549 214.569 144.35 213.955 144.611 213.191C144.871 212.427 145.398 212.045 146.193 212.045H153.553L155.937 204.187C156.074 203.805 156.287 203.511 156.575 203.306C156.863 203.102 157.171 203 157.5 203C157.828 203 158.137 203.102 158.424 203.306C158.712 203.511 158.925 203.805 159.062 204.187L161.447 212.045H168.806C169.601 212.045 170.129 212.427 170.39 213.191C170.649 213.955 170.45 214.569 169.793 215.033L163.831 219.249L166.175 226.82C166.394 227.584 166.175 228.198 165.517 228.662C164.859 229.126 164.215 229.112 163.584 228.621L157.5 223.996L151.415 228.621Z" fill="#E5E5E5"/>
<path d="M392.5 0H312.5V80H392.5V0Z" fill="#FF7C00"/>
<path d="M385.796 6.7041H319.205V73.2953H385.796V6.7041Z" fill="#261300"/>
<path d="M372.459 32.0449H366.142C365.979 32.0449 365.847 32.1777 365.847 32.3414V58.4359C365.847 58.5997 365.979 58.7324 366.142 58.7324H372.459C372.622 58.7324 372.753 58.5997 372.753 58.4359V32.3414C372.753 32.1777 372.622 32.0449 372.459 32.0449Z" fill="#FF7C00"/>
<path d="M369.3 28.5183C371.327 28.5183 372.97 26.9372 372.97 24.9867C372.97 23.0362 371.327 21.4551 369.3 21.4551C367.273 21.4551 365.63 23.0362 365.63 24.9867C365.63 26.9372 367.273 28.5183 369.3 28.5183Z" fill="#FF7C00"/>
<path fill-rule="evenodd" clip-rule="evenodd" d="M352.195 49.4013L354.785 58.0301C354.919 58.5399 355.183 58.6647 355.54 58.6595H362.172C362.683 58.6647 362.72 58.5086 362.642 58.1654L351.688 21.4031C351.668 21.3355 351.616 21.2887 351.513 21.2887L342.327 21.2627C341.965 21.2627 341.96 21.4499 341.991 21.8036C342.105 23.0831 342.043 23.8009 341.774 24.8047L332.076 58.1862C331.973 58.5034 331.999 58.6595 332.412 58.6647L338.672 58.6595C339.334 58.6387 339.37 58.4566 339.484 58.1238L341.655 49.4013H352.195ZM350.856 42.6917H343.252L346.938 27.6914L350.856 42.6917Z" fill="#FF7C00"/>
<path d="M337.154 120L336.429 117.621H332.786L332.061 120H329.778L333.305 109.965H335.896L339.437 120H337.154ZM335.923 115.844L335.199 113.52C335.153 113.365 335.092 113.166 335.014 112.925C334.941 112.679 334.866 112.43 334.789 112.18C334.716 111.924 334.656 111.703 334.611 111.517C334.565 111.703 334.502 111.936 334.419 112.214C334.342 112.487 334.267 112.747 334.194 112.993C334.121 113.239 334.069 113.415 334.037 113.52L333.319 115.844H335.923ZM343.238 120.137C342.385 120.137 341.69 119.804 341.153 119.139C340.619 118.469 340.353 117.487 340.353 116.192C340.353 114.884 340.624 113.896 341.166 113.226C341.709 112.551 342.417 112.214 343.292 112.214C343.657 112.214 343.978 112.264 344.256 112.364C344.534 112.465 344.773 112.599 344.974 112.768C345.179 112.936 345.352 113.125 345.493 113.335H345.562C345.534 113.189 345.5 112.975 345.459 112.692C345.423 112.405 345.405 112.111 345.405 111.811V109.363H347.496V120H345.897L345.493 119.009H345.405C345.272 119.218 345.106 119.41 344.906 119.583C344.71 119.752 344.475 119.886 344.201 119.986C343.928 120.087 343.607 120.137 343.238 120.137ZM343.969 118.476C344.539 118.476 344.94 118.307 345.172 117.97C345.409 117.628 345.534 117.115 345.548 116.432V116.206C345.548 115.463 345.434 114.896 345.206 114.504C344.978 114.107 344.555 113.909 343.935 113.909C343.475 113.909 343.115 114.107 342.855 114.504C342.595 114.9 342.465 115.472 342.465 116.22C342.465 116.967 342.595 117.53 342.855 117.908C343.119 118.286 343.491 118.476 343.969 118.476ZM356.902 116.165C356.902 116.803 356.816 117.368 356.643 117.86C356.474 118.353 356.226 118.77 355.897 119.111C355.574 119.449 355.182 119.704 354.722 119.877C354.266 120.05 353.751 120.137 353.177 120.137C352.639 120.137 352.145 120.05 351.693 119.877C351.247 119.704 350.857 119.449 350.524 119.111C350.196 118.77 349.941 118.353 349.759 117.86C349.581 117.368 349.492 116.803 349.492 116.165C349.492 115.317 349.643 114.6 349.943 114.012C350.244 113.424 350.673 112.977 351.229 112.672C351.785 112.367 352.448 112.214 353.218 112.214C353.933 112.214 354.567 112.367 355.118 112.672C355.674 112.977 356.109 113.424 356.424 114.012C356.743 114.6 356.902 115.317 356.902 116.165ZM351.618 116.165C351.618 116.666 351.673 117.088 351.782 117.43C351.892 117.771 352.062 118.029 352.295 118.202C352.527 118.375 352.83 118.462 353.204 118.462C353.573 118.462 353.872 118.375 354.1 118.202C354.332 118.029 354.501 117.771 354.605 117.43C354.715 117.088 354.77 116.666 354.77 116.165C354.77 115.659 354.715 115.24 354.605 114.907C354.501 114.57 354.332 114.317 354.1 114.148C353.867 113.98 353.564 113.896 353.19 113.896C352.639 113.896 352.238 114.085 351.987 114.463C351.741 114.841 351.618 115.409 351.618 116.165ZM360.99 109.363V111.838C360.99 112.125 360.981 112.41 360.963 112.692C360.949 112.975 360.931 113.194 360.908 113.349H360.99C361.19 113.034 361.464 112.768 361.81 112.549C362.157 112.326 362.606 112.214 363.157 112.214C364.014 112.214 364.709 112.549 365.242 113.219C365.775 113.889 366.042 114.871 366.042 116.165C366.042 117.035 365.919 117.767 365.673 118.359C365.426 118.947 365.082 119.392 364.64 119.692C364.198 119.989 363.686 120.137 363.102 120.137C362.542 120.137 362.1 120.036 361.776 119.836C361.453 119.635 361.19 119.41 360.99 119.159H360.846L360.498 120H358.905V109.363H360.99ZM362.487 113.882C362.122 113.882 361.833 113.957 361.619 114.107C361.405 114.258 361.247 114.483 361.147 114.784C361.051 115.085 360.999 115.465 360.99 115.926V116.151C360.99 116.894 361.099 117.464 361.318 117.86C361.537 118.252 361.936 118.448 362.514 118.448C362.943 118.448 363.282 118.25 363.533 117.854C363.788 117.457 363.916 116.885 363.916 116.138C363.916 115.39 363.788 114.827 363.533 114.449C363.278 114.071 362.929 113.882 362.487 113.882ZM371.196 112.214C371.902 112.214 372.511 112.351 373.021 112.624C373.531 112.893 373.926 113.285 374.204 113.8C374.482 114.315 374.621 114.944 374.621 115.687V116.698H369.692C369.715 117.286 369.89 117.749 370.218 118.086C370.551 118.419 371.011 118.585 371.599 118.585C372.087 118.585 372.533 118.535 372.939 118.435C373.345 118.334 373.761 118.184 374.19 117.983V119.597C373.812 119.784 373.415 119.92 373 120.007C372.59 120.093 372.091 120.137 371.503 120.137C370.738 120.137 370.059 119.995 369.466 119.713C368.878 119.43 368.416 119 368.079 118.421C367.746 117.842 367.58 117.113 367.58 116.233C367.58 115.34 367.73 114.597 368.031 114.005C368.336 113.408 368.76 112.961 369.302 112.665C369.845 112.364 370.476 112.214 371.196 112.214ZM371.209 113.697C370.804 113.697 370.467 113.827 370.198 114.087C369.933 114.347 369.781 114.755 369.74 115.311H372.665C372.661 115.001 372.604 114.725 372.495 114.483C372.39 114.242 372.23 114.05 372.016 113.909C371.806 113.768 371.538 113.697 371.209 113.697ZM316.674 139V129.006H318.793V139H316.674ZM323.51 139H321.425V128.363H323.51V139ZM328.069 139H325.984V128.363H328.069V139ZM337.557 131.357V139H335.958L335.677 138.022H335.568C335.404 138.282 335.199 138.494 334.953 138.658C334.707 138.822 334.435 138.943 334.139 139.021C333.843 139.098 333.535 139.137 333.216 139.137C332.669 139.137 332.193 139.041 331.788 138.85C331.382 138.654 331.065 138.351 330.837 137.94C330.614 137.53 330.502 136.997 330.502 136.341V131.357H332.587V135.821C332.587 136.368 332.685 136.781 332.881 137.059C333.077 137.337 333.39 137.476 333.818 137.476C334.242 137.476 334.574 137.38 334.816 137.188C335.058 136.993 335.226 136.708 335.322 136.334C335.422 135.956 335.472 135.495 335.472 134.953V131.357H337.557ZM345.357 136.73C345.357 137.25 345.234 137.69 344.988 138.05C344.746 138.405 344.384 138.676 343.901 138.863C343.418 139.046 342.816 139.137 342.096 139.137C341.563 139.137 341.105 139.103 340.722 139.034C340.344 138.966 339.961 138.852 339.574 138.692V136.97C339.988 137.157 340.433 137.312 340.907 137.435C341.385 137.553 341.804 137.612 342.164 137.612C342.57 137.612 342.859 137.553 343.032 137.435C343.21 137.312 343.299 137.152 343.299 136.956C343.299 136.828 343.263 136.715 343.19 136.614C343.121 136.509 342.971 136.393 342.739 136.266C342.506 136.133 342.142 135.963 341.645 135.753C341.166 135.552 340.772 135.35 340.462 135.145C340.157 134.939 339.929 134.698 339.779 134.42C339.633 134.137 339.56 133.78 339.56 133.347C339.56 132.64 339.833 132.109 340.38 131.754C340.932 131.394 341.668 131.214 342.588 131.214C343.062 131.214 343.513 131.262 343.942 131.357C344.375 131.453 344.819 131.606 345.275 131.815L344.646 133.319C344.268 133.155 343.91 133.021 343.573 132.916C343.24 132.811 342.9 132.759 342.554 132.759C342.249 132.759 342.019 132.8 341.864 132.882C341.709 132.964 341.631 133.089 341.631 133.258C341.631 133.381 341.67 133.49 341.747 133.586C341.829 133.682 341.984 133.789 342.212 133.907C342.445 134.021 342.784 134.169 343.231 134.352C343.664 134.529 344.04 134.716 344.359 134.912C344.678 135.104 344.924 135.343 345.097 135.63C345.27 135.912 345.357 136.279 345.357 136.73ZM350.483 137.476C350.711 137.476 350.932 137.453 351.146 137.407C351.365 137.362 351.582 137.305 351.796 137.236V138.788C351.573 138.888 351.295 138.97 350.962 139.034C350.634 139.103 350.274 139.137 349.882 139.137C349.426 139.137 349.016 139.064 348.651 138.918C348.291 138.768 348.007 138.51 347.797 138.146C347.592 137.776 347.489 137.264 347.489 136.607V132.923H346.491V132.041L347.64 131.344L348.241 129.73H349.574V131.357H351.714V132.923H349.574V136.607C349.574 136.899 349.656 137.118 349.82 137.264C349.989 137.405 350.21 137.476 350.483 137.476ZM357.893 131.214C357.998 131.214 358.119 131.221 358.256 131.234C358.397 131.243 358.511 131.257 358.597 131.275L358.44 133.23C358.372 133.208 358.274 133.192 358.146 133.183C358.023 133.169 357.916 133.162 357.825 133.162C357.556 133.162 357.294 133.196 357.039 133.265C356.788 133.333 356.563 133.445 356.362 133.6C356.162 133.75 356.002 133.951 355.884 134.201C355.77 134.447 355.713 134.75 355.713 135.11V139H353.628V131.357H355.207L355.514 132.643H355.617C355.767 132.383 355.954 132.146 356.177 131.932C356.405 131.713 356.663 131.54 356.95 131.412C357.242 131.28 357.556 131.214 357.893 131.214ZM363.396 131.2C364.421 131.2 365.207 131.424 365.754 131.87C366.301 132.317 366.575 132.996 366.575 133.907V139H365.119L364.715 137.961H364.661C364.442 138.234 364.219 138.458 363.991 138.631C363.763 138.804 363.501 138.932 363.205 139.014C362.908 139.096 362.548 139.137 362.124 139.137C361.673 139.137 361.268 139.05 360.908 138.877C360.552 138.704 360.272 138.439 360.067 138.084C359.862 137.724 359.759 137.268 359.759 136.717C359.759 135.906 360.044 135.309 360.614 134.926C361.183 134.538 362.038 134.324 363.177 134.283L364.503 134.242V133.907C364.503 133.506 364.399 133.212 364.189 133.025C363.979 132.839 363.688 132.745 363.314 132.745C362.945 132.745 362.582 132.798 362.227 132.902C361.872 133.007 361.516 133.139 361.161 133.299L360.47 131.891C360.876 131.676 361.329 131.508 361.831 131.385C362.336 131.262 362.858 131.2 363.396 131.2ZM364.503 135.459L363.697 135.486C363.022 135.505 362.553 135.625 362.289 135.849C362.029 136.072 361.899 136.366 361.899 136.73C361.899 137.049 361.992 137.277 362.179 137.414C362.366 137.546 362.61 137.612 362.911 137.612C363.357 137.612 363.733 137.48 364.039 137.216C364.348 136.951 364.503 136.576 364.503 136.088V135.459ZM372.228 137.476C372.456 137.476 372.677 137.453 372.891 137.407C373.11 137.362 373.326 137.305 373.54 137.236V138.788C373.317 138.888 373.039 138.97 372.706 139.034C372.378 139.103 372.018 139.137 371.626 139.137C371.17 139.137 370.76 139.064 370.396 138.918C370.036 138.768 369.751 138.51 369.541 138.146C369.336 137.776 369.234 137.264 369.234 136.607V132.923H368.236V132.041L369.384 131.344L369.986 129.73H371.319V131.357H373.458V132.923H371.319V136.607C371.319 136.899 371.401 137.118 371.565 137.264C371.733 137.405 371.954 137.476 372.228 137.476ZM382.317 135.165C382.317 135.803 382.231 136.368 382.057 136.86C381.889 137.353 381.641 137.77 381.312 138.111C380.989 138.449 380.597 138.704 380.137 138.877C379.681 139.05 379.166 139.137 378.592 139.137C378.054 139.137 377.559 139.05 377.108 138.877C376.662 138.704 376.272 138.449 375.939 138.111C375.611 137.77 375.356 137.353 375.174 136.86C374.996 136.368 374.907 135.803 374.907 135.165C374.907 134.317 375.057 133.6 375.358 133.012C375.659 132.424 376.087 131.977 376.643 131.672C377.199 131.367 377.863 131.214 378.633 131.214C379.348 131.214 379.982 131.367 380.533 131.672C381.089 131.977 381.524 132.424 381.839 133.012C382.158 133.6 382.317 134.317 382.317 135.165ZM377.033 135.165C377.033 135.666 377.088 136.088 377.197 136.43C377.307 136.771 377.477 137.029 377.71 137.202C377.942 137.375 378.245 137.462 378.619 137.462C378.988 137.462 379.287 137.375 379.515 137.202C379.747 137.029 379.916 136.771 380.02 136.43C380.13 136.088 380.184 135.666 380.184 135.165C380.184 134.659 380.13 134.24 380.02 133.907C379.916 133.57 379.747 133.317 379.515 133.148C379.282 132.98 378.979 132.896 378.605 132.896C378.054 132.896 377.653 133.085 377.402 133.463C377.156 133.841 377.033 134.409 377.033 135.165ZM388.586 131.214C388.69 131.214 388.811 131.221 388.948 131.234C389.089 131.243 389.203 131.257 389.29 131.275L389.132 133.23C389.064 133.208 388.966 133.192 388.838 133.183C388.715 133.169 388.608 133.162 388.517 133.162C388.248 133.162 387.986 133.196 387.731 133.265C387.48 133.333 387.255 133.445 387.054 133.6C386.854 133.75 386.694 133.951 386.576 134.201C386.462 134.447 386.405 134.75 386.405 135.11V139H384.32V131.357H385.899L386.207 132.643H386.309C386.46 132.383 386.646 132.146 386.87 131.932C387.098 131.713 387.355 131.54 387.642 131.412C387.934 131.28 388.248 131.214 388.586 131.214Z" fill="#828282"/>
<path d="M274.415 228.621C273.784 229.112 273.14 229.126 272.482 228.662C271.825 228.198 271.605 227.584 271.825 226.82L274.168 219.249L268.206 215.033C267.549 214.569 267.35 213.955 267.611 213.191C267.871 212.427 268.398 212.045 269.193 212.045H276.553L278.937 204.187C279.074 203.805 279.287 203.511 279.575 203.306C279.863 203.102 280.171 203 280.5 203C280.828 203 281.137 203.102 281.424 203.306C281.712 203.511 281.925 203.805 282.062 204.187L284.447 212.045H291.806C292.601 212.045 293.129 212.427 293.39 213.191C293.649 213.955 293.45 214.569 292.793 215.033L286.831 219.249L289.175 226.82C289.394 227.584 289.175 228.198 288.517 228.662C287.859 229.126 287.215 229.112 286.584 228.621L280.5 223.996L274.415 228.621Z" fill="#070707"/>
<path d="M310.415 228.621C309.784 229.112 309.14 229.126 308.482 228.662C307.825 228.198 307.605 227.584 307.825 226.82L310.168 219.249L304.206 215.033C303.549 214.569 303.35 213.955 303.611 213.191C303.871 212.427 304.398 212.045 305.193 212.045H312.553L314.937 204.187C315.074 203.805 315.287 203.511 315.575 203.306C315.863 203.102 316.171 203 316.5 203C316.828 203 317.137 203.102 317.424 203.306C317.712 203.511 317.925 203.805 318.062 204.187L320.447 212.045H327.806C328.601 212.045 329.129 212.427 329.39 213.191C329.649 213.955 329.45 214.569 328.793 215.033L322.831 219.249L325.175 226.82C325.394 227.584 325.175 228.198 324.517 228.662C323.859 229.126 323.215 229.112 322.584 228.621L316.5 223.996L310.415 228.621Z" fill="#070707"/>
<path d="M346.415 228.621C345.784 229.112 345.14 229.126 344.482 228.662C343.825 228.198 343.605 227.584 343.825 226.82L346.168 219.249L340.206 215.033C339.549 214.569 339.35 213.955 339.611 213.191C339.871 212.427 340.398 212.045 341.193 212.045H348.553L350.937 204.187C351.074 203.805 351.287 203.511 351.575 203.306C351.863 203.102 352.171 203 352.5 203C352.828 203 353.137 203.102 353.424 203.306C353.712 203.511 353.925 203.805 354.062 204.187L356.447 212.045H363.806C364.601 212.045 365.129 212.427 365.39 213.191C365.649 213.955 365.45 214.569 364.793 215.033L358.831 219.249L361.175 226.82C361.394 227.584 361.175 228.198 360.517 228.662C359.859 229.126 359.215 229.112 358.584 228.621L352.5 223.996L346.415 228.621Z" fill="#070707"/>
<path d="M382.415 228.621C381.784 229.112 381.14 229.126 380.482 228.662C379.825 228.198 379.605 227.584 379.825 226.82L382.168 219.249L376.206 215.033C375.549 214.569 375.35 213.955 375.611 213.191C375.871 212.427 376.398 212.045 377.193 212.045H384.553L386.937 204.187C387.074 203.805 387.287 203.511 387.575 203.306C387.863 203.102 388.171 203 388.5 203C388.828 203 389.137 203.102 389.424 203.306C389.712 203.511 389.925 203.805 390.062 204.187L392.447 212.045H399.806C400.601 212.045 401.129 212.427 401.39 213.191C401.649 213.955 401.45 214.569 400.793 215.033L394.831 219.249L397.175 226.82C397.394 227.584 397.175 228.198 396.517 228.662C395.859 229.126 395.215 229.112 394.584 228.621L388.5 223.996L382.415 228.621Z" fill="#E5E5E5"/>
<path d="M418.415 228.621C417.784 229.112 417.14 229.126 416.482 228.662C415.825 228.198 415.605 227.584 415.825 226.82L418.168 219.249L412.206 215.033C411.549 214.569 411.35 213.955 411.611 213.191C411.871 212.427 412.398 212.045 413.193 212.045H420.553L422.937 204.187C423.074 203.805 423.287 203.511 423.575 203.306C423.863 203.102 424.171 203 424.5 203C424.828 203 425.137 203.102 425.424 203.306C425.712 203.511 425.925 203.805 426.062 204.187L428.447 212.045H435.806C436.601 212.045 437.129 212.427 437.39 213.191C437.649 213.955 437.45 214.569 436.793 215.033L430.831 219.249L433.175 226.82C433.394 227.584 433.175 228.198 432.517 228.662C431.859 229.126 431.215 229.112 430.584 228.621L424.5 223.996L418.415 228.621Z" fill="#E5E5E5"/>
<path d="M659.5 0H579.5V80H659.5V0Z" fill="#BC85F3"/>
<path d="M652.796 6.7041H586.205V73.2953H652.796V6.7041Z" fill="#252653"/>
<path fill-rule="evenodd" clip-rule="evenodd" d="M611.663 49.1828L614.449 58.4514H622.276L611.162 21.1482C611.141 21.0806 611.089 21.0338 610.981 21.0338L601.785 21.0078C601.428 21.0078 601.418 21.1951 601.449 21.5487C601.562 22.8334 601.5 23.5512 601.237 24.555L591.384 58.4566L598.807 58.4462L601.118 49.1776L611.663 49.1828ZM610.33 42.4629H602.71L606.406 27.4469L610.33 42.4629ZM631.405 46.1713L645.77 46.1921C646.675 45.0271 646.84 42.8373 646.814 41.4018C646.716 35.5764 642.881 30.0007 635.954 29.9643C624.323 29.8967 622.121 44.6942 626.08 53.2294C627.326 55.9132 629.828 57.6192 632.764 58.4306C634.103 58.7999 635.525 58.9871 636.962 58.9923C639.805 59.0027 642.695 58.311 645.016 56.9795C645.052 56.9587 645.114 56.9587 645.119 56.917V56.7506L645.114 51.9291C645.114 51.7106 644.948 51.5858 644.7 51.6638C641.764 52.5532 631.818 55.3931 631.358 46.4418C631.353 46.3742 631.338 46.1713 631.405 46.1713ZM638.606 41.3394H631.291C631.327 37.4281 633.111 35.2071 635.866 35.1967C638.368 35.1863 639.96 36.934 640.037 41.2458C640.037 41.4434 640.037 41.3394 640.037 41.3394H638.606Z" fill="#BC85F3"/>
<path d="M604.154 120L603.429 117.621H599.786L599.061 120H596.778L600.305 109.965H602.896L606.437 120H604.154ZM602.923 115.844L602.199 113.52C602.153 113.365 602.092 113.166 602.014 112.925C601.941 112.679 601.866 112.43 601.789 112.18C601.716 111.924 601.656 111.703 601.611 111.517C601.565 111.703 601.502 111.936 601.419 112.214C601.342 112.487 601.267 112.747 601.194 112.993C601.121 113.239 601.069 113.415 601.037 113.52L600.319 115.844H602.923ZM610.238 120.137C609.385 120.137 608.69 119.804 608.153 119.139C607.619 118.469 607.353 117.487 607.353 116.192C607.353 114.884 607.624 113.896 608.166 113.226C608.709 112.551 609.417 112.214 610.292 112.214C610.657 112.214 610.978 112.264 611.256 112.364C611.534 112.465 611.773 112.599 611.974 112.768C612.179 112.936 612.352 113.125 612.493 113.335H612.562C612.534 113.189 612.5 112.975 612.459 112.692C612.423 112.405 612.405 112.111 612.405 111.811V109.363H614.496V120H612.897L612.493 119.009H612.405C612.272 119.218 612.106 119.41 611.906 119.583C611.71 119.752 611.475 119.886 611.201 119.986C610.928 120.087 610.607 120.137 610.238 120.137ZM610.969 118.476C611.539 118.476 611.94 118.307 612.172 117.97C612.409 117.628 612.534 117.115 612.548 116.432V116.206C612.548 115.463 612.434 114.896 612.206 114.504C611.978 114.107 611.555 113.909 610.935 113.909C610.475 113.909 610.115 114.107 609.855 114.504C609.595 114.9 609.465 115.472 609.465 116.22C609.465 116.967 609.595 117.53 609.855 117.908C610.119 118.286 610.491 118.476 610.969 118.476ZM623.902 116.165C623.902 116.803 623.816 117.368 623.643 117.86C623.474 118.353 623.226 118.77 622.897 119.111C622.574 119.449 622.182 119.704 621.722 119.877C621.266 120.05 620.751 120.137 620.177 120.137C619.639 120.137 619.145 120.05 618.693 119.877C618.247 119.704 617.857 119.449 617.524 119.111C617.196 118.77 616.941 118.353 616.759 117.86C616.581 117.368 616.492 116.803 616.492 116.165C616.492 115.317 616.643 114.6 616.943 114.012C617.244 113.424 617.673 112.977 618.229 112.672C618.785 112.367 619.448 112.214 620.218 112.214C620.933 112.214 621.567 112.367 622.118 112.672C622.674 112.977 623.109 113.424 623.424 114.012C623.743 114.6 623.902 115.317 623.902 116.165ZM618.618 116.165C618.618 116.666 618.673 117.088 618.782 117.43C618.892 117.771 619.062 118.029 619.295 118.202C619.527 118.375 619.83 118.462 620.204 118.462C620.573 118.462 620.872 118.375 621.1 118.202C621.332 118.029 621.501 117.771 621.605 117.43C621.715 117.088 621.77 116.666 621.77 116.165C621.77 115.659 621.715 115.24 621.605 114.907C621.501 114.57 621.332 114.317 621.1 114.148C620.867 113.98 620.564 113.896 620.19 113.896C619.639 113.896 619.238 114.085 618.987 114.463C618.741 114.841 618.618 115.409 618.618 116.165ZM627.99 109.363V111.838C627.99 112.125 627.981 112.41 627.963 112.692C627.949 112.975 627.931 113.194 627.908 113.349H627.99C628.19 113.034 628.464 112.768 628.81 112.549C629.157 112.326 629.606 112.214 630.157 112.214C631.014 112.214 631.709 112.549 632.242 113.219C632.775 113.889 633.042 114.871 633.042 116.165C633.042 117.035 632.919 117.767 632.673 118.359C632.426 118.947 632.082 119.392 631.64 119.692C631.198 119.989 630.686 120.137 630.102 120.137C629.542 120.137 629.1 120.036 628.776 119.836C628.453 119.635 628.19 119.41 627.99 119.159H627.846L627.498 120H625.905V109.363H627.99ZM629.487 113.882C629.122 113.882 628.833 113.957 628.619 114.107C628.405 114.258 628.247 114.483 628.147 114.784C628.051 115.085 627.999 115.465 627.99 115.926V116.151C627.99 116.894 628.099 117.464 628.318 117.86C628.537 118.252 628.936 118.448 629.514 118.448C629.943 118.448 630.282 118.25 630.533 117.854C630.788 117.457 630.916 116.885 630.916 116.138C630.916 115.39 630.788 114.827 630.533 114.449C630.278 114.071 629.929 113.882 629.487 113.882ZM638.196 112.214C638.902 112.214 639.511 112.351 640.021 112.624C640.531 112.893 640.926 113.285 641.204 113.8C641.482 114.315 641.621 114.944 641.621 115.687V116.698H636.692C636.715 117.286 636.89 117.749 637.218 118.086C637.551 118.419 638.011 118.585 638.599 118.585C639.087 118.585 639.533 118.535 639.939 118.435C640.345 118.334 640.761 118.184 641.19 117.983V119.597C640.812 119.784 640.415 119.92 640 120.007C639.59 120.093 639.091 120.137 638.503 120.137C637.738 120.137 637.059 119.995 636.466 119.713C635.878 119.43 635.416 119 635.079 118.421C634.746 117.842 634.58 117.113 634.58 116.233C634.58 115.34 634.73 114.597 635.031 114.005C635.336 113.408 635.76 112.961 636.302 112.665C636.845 112.364 637.476 112.214 638.196 112.214ZM638.209 113.697C637.804 113.697 637.467 113.827 637.198 114.087C636.933 114.347 636.781 114.755 636.74 115.311H639.665C639.661 115.001 639.604 114.725 639.495 114.483C639.39 114.242 639.23 114.05 639.016 113.909C638.806 113.768 638.538 113.697 638.209 113.697ZM582.01 139L581.285 136.621H577.642L576.917 139H574.634L578.161 128.965H580.752L584.293 139H582.01ZM580.779 134.844L580.055 132.52C580.009 132.365 579.948 132.166 579.87 131.925C579.797 131.679 579.722 131.43 579.645 131.18C579.572 130.924 579.512 130.703 579.467 130.517C579.421 130.703 579.357 130.936 579.275 131.214C579.198 131.487 579.123 131.747 579.05 131.993C578.977 132.239 578.925 132.415 578.893 132.52L578.175 134.844H580.779ZM589.898 132.923H588.094V139H586.009V132.923H584.86V131.918L586.009 131.357V130.797C586.009 130.145 586.118 129.639 586.337 129.279C586.56 128.915 586.872 128.66 587.273 128.514C587.679 128.363 588.157 128.288 588.709 128.288C589.114 128.288 589.483 128.322 589.816 128.391C590.149 128.454 590.42 128.527 590.63 128.609L590.096 130.141C589.937 130.09 589.764 130.045 589.577 130.004C589.39 129.963 589.176 129.942 588.934 129.942C588.643 129.942 588.428 130.031 588.292 130.209C588.16 130.382 588.094 130.605 588.094 130.879V131.357H589.898V132.923ZM594.601 137.476C594.829 137.476 595.05 137.453 595.264 137.407C595.483 137.362 595.699 137.305 595.914 137.236V138.788C595.69 138.888 595.412 138.97 595.08 139.034C594.751 139.103 594.391 139.137 593.999 139.137C593.544 139.137 593.134 139.064 592.769 138.918C592.409 138.768 592.124 138.51 591.915 138.146C591.709 137.776 591.607 137.264 591.607 136.607V132.923H590.609V132.041L591.757 131.344L592.359 129.73H593.692V131.357H595.832V132.923H593.692V136.607C593.692 136.899 593.774 137.118 593.938 137.264C594.107 137.405 594.328 137.476 594.601 137.476ZM600.897 131.214C601.603 131.214 602.211 131.351 602.722 131.624C603.232 131.893 603.626 132.285 603.904 132.8C604.182 133.315 604.321 133.944 604.321 134.687V135.698H599.393C599.416 136.286 599.591 136.749 599.919 137.086C600.252 137.419 600.712 137.585 601.3 137.585C601.788 137.585 602.234 137.535 602.64 137.435C603.045 137.334 603.462 137.184 603.891 136.983V138.597C603.513 138.784 603.116 138.92 602.701 139.007C602.291 139.093 601.792 139.137 601.204 139.137C600.439 139.137 599.76 138.995 599.167 138.713C598.579 138.43 598.117 138 597.779 137.421C597.447 136.842 597.28 136.113 597.28 135.233C597.28 134.34 597.431 133.597 597.732 133.005C598.037 132.408 598.461 131.961 599.003 131.665C599.545 131.364 600.177 131.214 600.897 131.214ZM600.91 132.697C600.505 132.697 600.168 132.827 599.899 133.087C599.634 133.347 599.482 133.755 599.441 134.311H602.366C602.362 134.001 602.305 133.725 602.196 133.483C602.091 133.242 601.931 133.05 601.717 132.909C601.507 132.768 601.238 132.697 600.91 132.697ZM610.562 131.214C610.667 131.214 610.788 131.221 610.925 131.234C611.066 131.243 611.18 131.257 611.267 131.275L611.109 133.23C611.041 133.208 610.943 133.192 610.815 133.183C610.692 133.169 610.585 133.162 610.494 133.162C610.225 133.162 609.963 133.196 609.708 133.265C609.457 133.333 609.232 133.445 609.031 133.6C608.831 133.75 608.671 133.951 608.553 134.201C608.439 134.447 608.382 134.75 608.382 135.11V139H606.297V131.357H607.876L608.184 132.643H608.286C608.436 132.383 608.623 132.146 608.847 131.932C609.074 131.713 609.332 131.54 609.619 131.412C609.911 131.28 610.225 131.214 610.562 131.214ZM622.771 139H617.015V129.006H622.771V130.742H619.134V132.937H622.518V134.673H619.134V137.25H622.771V139ZM629.203 132.923H627.399V139H625.314V132.923H624.165V131.918L625.314 131.357V130.797C625.314 130.145 625.423 129.639 625.642 129.279C625.865 128.915 626.177 128.66 626.578 128.514C626.984 128.363 627.462 128.288 628.014 128.288C628.419 128.288 628.788 128.322 629.121 128.391C629.454 128.454 629.725 128.527 629.935 128.609L629.401 130.141C629.242 130.09 629.069 130.045 628.882 130.004C628.695 129.963 628.481 129.942 628.239 129.942C627.948 129.942 627.733 130.031 627.597 130.209C627.465 130.382 627.399 130.605 627.399 130.879V131.357H629.203V132.923ZM634.624 132.923H632.819V139H630.734V132.923H629.586V131.918L630.734 131.357V130.797C630.734 130.145 630.844 129.639 631.063 129.279C631.286 128.915 631.598 128.66 631.999 128.514C632.405 128.363 632.883 128.288 633.435 128.288C633.84 128.288 634.209 128.322 634.542 128.391C634.875 128.454 635.146 128.527 635.356 128.609L634.822 130.141C634.663 130.09 634.49 130.045 634.303 130.004C634.116 129.963 633.902 129.942 633.66 129.942C633.369 129.942 633.154 130.031 633.018 130.209C632.885 130.382 632.819 130.605 632.819 130.879V131.357H634.624V132.923ZM639.252 131.214C639.958 131.214 640.567 131.351 641.077 131.624C641.587 131.893 641.982 132.285 642.26 132.8C642.538 133.315 642.677 133.944 642.677 134.687V135.698H637.748C637.771 136.286 637.946 136.749 638.274 137.086C638.607 137.419 639.067 137.585 639.655 137.585C640.143 137.585 640.589 137.535 640.995 137.435C641.401 137.334 641.818 137.184 642.246 136.983V138.597C641.868 138.784 641.471 138.92 641.056 139.007C640.646 139.093 640.147 139.137 639.559 139.137C638.794 139.137 638.115 138.995 637.522 138.713C636.934 138.43 636.472 138 636.135 137.421C635.802 136.842 635.636 136.113 635.636 135.233C635.636 134.34 635.786 133.597 636.087 133.005C636.392 132.408 636.816 131.961 637.358 131.665C637.901 131.364 638.532 131.214 639.252 131.214ZM639.265 132.697C638.86 132.697 638.523 132.827 638.254 133.087C637.989 133.347 637.837 133.755 637.796 134.311H640.721C640.717 134.001 640.66 133.725 640.551 133.483C640.446 133.242 640.286 133.05 640.072 132.909C639.862 132.768 639.594 132.697 639.265 132.697ZM647.755 139.137C646.999 139.137 646.354 139 645.821 138.727C645.288 138.449 644.882 138.02 644.604 137.441C644.326 136.863 644.187 136.122 644.187 135.22C644.187 134.285 644.344 133.524 644.659 132.937C644.978 132.344 645.417 131.909 645.978 131.631C646.543 131.353 647.197 131.214 647.94 131.214C648.469 131.214 648.924 131.266 649.307 131.371C649.695 131.471 650.032 131.592 650.319 131.733L649.704 133.347C649.376 133.215 649.07 133.107 648.788 133.025C648.505 132.939 648.223 132.896 647.94 132.896C647.575 132.896 647.272 132.982 647.031 133.155C646.789 133.324 646.609 133.579 646.491 133.921C646.372 134.263 646.313 134.691 646.313 135.206C646.313 135.712 646.377 136.131 646.504 136.464C646.632 136.797 646.817 137.045 647.058 137.209C647.3 137.368 647.594 137.448 647.94 137.448C648.373 137.448 648.758 137.391 649.095 137.277C649.432 137.159 649.761 136.995 650.08 136.785V138.569C649.761 138.77 649.426 138.913 649.075 139C648.728 139.091 648.289 139.137 647.755 139.137ZM655.357 137.476C655.585 137.476 655.806 137.453 656.02 137.407C656.239 137.362 656.455 137.305 656.669 137.236V138.788C656.446 138.888 656.168 138.97 655.835 139.034C655.507 139.103 655.147 139.137 654.755 139.137C654.299 139.137 653.889 139.064 653.525 138.918C653.165 138.768 652.88 138.51 652.67 138.146C652.465 137.776 652.363 137.264 652.363 136.607V132.923H651.364V132.041L652.513 131.344L653.114 129.73H654.448V131.357H656.587V132.923H654.448V136.607C654.448 136.899 654.53 137.118 654.694 137.264C654.862 137.405 655.083 137.476 655.357 137.476ZM663.833 136.73C663.833 137.25 663.71 137.69 663.464 138.05C663.222 138.405 662.86 138.676 662.377 138.863C661.894 139.046 661.292 139.137 660.572 139.137C660.039 139.137 659.581 139.103 659.198 139.034C658.82 138.966 658.437 138.852 658.05 138.692V136.97C658.464 137.157 658.909 137.312 659.383 137.435C659.861 137.553 660.281 137.612 660.641 137.612C661.046 137.612 661.336 137.553 661.509 137.435C661.686 137.312 661.775 137.152 661.775 136.956C661.775 136.828 661.739 136.715 661.666 136.614C661.598 136.509 661.447 136.393 661.215 136.266C660.982 136.133 660.618 135.963 660.121 135.753C659.643 135.552 659.248 135.35 658.938 135.145C658.633 134.939 658.405 134.698 658.255 134.42C658.109 134.137 658.036 133.78 658.036 133.347C658.036 132.64 658.31 132.109 658.856 131.754C659.408 131.394 660.144 131.214 661.064 131.214C661.538 131.214 661.99 131.262 662.418 131.357C662.851 131.453 663.295 131.606 663.751 131.815L663.122 133.319C662.744 133.155 662.386 133.021 662.049 132.916C661.716 132.811 661.377 132.759 661.03 132.759C660.725 132.759 660.495 132.8 660.34 132.882C660.185 132.964 660.107 133.089 660.107 133.258C660.107 133.381 660.146 133.49 660.224 133.586C660.306 133.682 660.461 133.789 660.688 133.907C660.921 134.021 661.26 134.169 661.707 134.352C662.14 134.529 662.516 134.716 662.835 134.912C663.154 135.104 663.4 135.343 663.573 135.63C663.746 135.912 663.833 136.279 663.833 136.73Z" fill="#828282"/>
<path d="M541.415 228.621C540.784 229.112 540.14 229.126 539.482 228.662C538.825 228.198 538.605 227.584 538.825 226.82L541.168 219.249L535.206 215.033C534.549 214.569 534.35 213.955 534.611 213.191C534.871 212.427 535.398 212.045 536.193 212.045H543.553L545.937 204.187C546.074 203.805 546.287 203.511 546.575 203.306C546.863 203.102 547.171 203 547.5 203C547.828 203 548.137 203.102 548.424 203.306C548.712 203.511 548.925 203.805 549.062 204.187L551.447 212.045H558.806C559.601 212.045 560.129 212.427 560.39 213.191C560.649 213.955 560.45 214.569 559.793 215.033L553.831 219.249L556.175 226.82C556.394 227.584 556.175 228.198 555.517 228.662C554.859 229.126 554.215 229.112 553.584 228.621L547.5 223.996L541.415 228.621Z" fill="#070707"/>
<path d="M577.415 228.621C576.784 229.112 576.14 229.126 575.482 228.662C574.825 228.198 574.605 227.584 574.825 226.82L577.168 219.249L571.206 215.033C570.549 214.569 570.35 213.955 570.611 213.191C570.871 212.427 571.398 212.045 572.193 212.045H579.553L581.937 204.187C582.074 203.805 582.287 203.511 582.575 203.306C582.863 203.102 583.171 203 583.5 203C583.828 203 584.137 203.102 584.424 203.306C584.712 203.511 584.925 203.805 585.062 204.187L587.447 212.045H594.806C595.601 212.045 596.129 212.427 596.39 213.191C596.649 213.955 596.45 214.569 595.793 215.033L589.831 219.249L592.175 226.82C592.394 227.584 592.175 228.198 591.517 228.662C590.859 229.126 590.215 229.112 589.584 228.621L583.5 223.996L577.415 228.621Z" fill="#070707"/>
<path d="M613.415 228.621C612.784 229.112 612.14 229.126 611.482 228.662C610.825 228.198 610.605 227.584 610.825 226.82L613.168 219.249L607.206 215.033C606.549 214.569 606.35 213.955 606.611 213.191C606.871 212.427 607.398 212.045 608.193 212.045H615.553L617.937 204.187C618.074 203.805 618.287 203.511 618.575 203.306C618.863 203.102 619.171 203 619.5 203C619.828 203 620.137 203.102 620.424 203.306C620.712 203.511 620.925 203.805 621.062 204.187L623.447 212.045H630.806C631.601 212.045 632.129 212.427 632.39 213.191C632.649 213.955 632.45 214.569 631.793 215.033L625.831 219.249L628.175 226.82C628.394 227.584 628.175 228.198 627.517 228.662C626.859 229.126 626.215 229.112 625.584 228.621L619.5 223.996L613.415 228.621Z" fill="#070707"/>
<path d="M649.415 228.621C648.784 229.112 648.14 229.126 647.482 228.662C646.825 228.198 646.605 227.584 646.825 226.82L649.168 219.249L643.206 215.033C642.549 214.569 642.35 213.955 642.611 213.191C642.871 212.427 643.398 212.045 644.193 212.045H651.553L653.937 204.187C654.074 203.805 654.287 203.511 654.575 203.306C654.863 203.102 655.171 203 655.5 203C655.828 203 656.137 203.102 656.424 203.306C656.712 203.511 656.925 203.805 657.062 204.187L659.447 212.045H666.806C667.601 212.045 668.129 212.427 668.39 213.191C668.649 213.955 668.45 214.569 667.793 215.033L661.831 219.249L664.175 226.82C664.394 227.584 664.175 228.198 663.517 228.662C662.859 229.126 662.215 229.112 661.584 228.621L655.5 223.996L649.415 228.621Z" fill="#070707"/>
<path d="M685.415 228.621C684.784 229.112 684.14 229.126 683.482 228.662C682.825 228.198 682.605 227.584 682.825 226.82L685.168 219.249L679.206 215.033C678.549 214.569 678.35 213.955 678.611 213.191C678.871 212.427 679.398 212.045 680.193 212.045H687.553L689.937 204.187C690.074 203.805 690.287 203.511 690.575 203.306C690.863 203.102 691.171 203 691.5 203C691.828 203 692.137 203.102 692.424 203.306C692.712 203.511 692.925 203.805 693.062 204.187L695.447 212.045H702.806C703.601 212.045 704.129 212.427 704.39 213.191C704.649 213.955 704.45 214.569 703.793 215.033L697.831 219.249L700.175 226.82C700.394 227.584 700.175 228.198 699.517 228.662C698.859 229.126 698.215 229.112 697.584 228.621L691.5 223.996L685.415 228.621Z" fill="#E5E5E5"/>
<path d="M873.167 79.9997C880.527 79.9997 886.5 74.0263 886.5 66.6663V53.333H873.167C865.807 53.333 859.833 59.3063 859.833 66.6663C859.833 74.0263 865.807 79.9997 873.167 79.9997Z" fill="#0ACF83"/>
<path d="M859.833 40.0003C859.833 32.6403 865.807 26.667 873.167 26.667H886.5V53.3337H873.167C865.807 53.3337 859.833 47.3603 859.833 40.0003Z" fill="#A259FF"/>
<path d="M859.833 13.3333C859.833 5.97333 865.807 0 873.167 0H886.5V26.6667H873.167C865.807 26.6667 859.833 20.6933 859.833 13.3333Z" fill="#F24E1E"/>
<path d="M886.5 0H899.833C907.193 0 913.167 5.97333 913.167 13.3333C913.167 20.6933 907.193 26.6667 899.833 26.6667H886.5V0Z" fill="#FF7262"/>
<path d="M913.167 40.0003C913.167 47.3603 907.193 53.3337 899.833 53.3337C892.473 53.3337 886.5 47.3603 886.5 40.0003C886.5 32.6403 892.473 26.667 899.833 26.667C907.193 26.667 913.167 32.6403 913.167 40.0003Z" fill="#1ABCFE"/>
<path d="M868.235 120H866.15V110.006H871.878V111.742H868.235V114.319H871.626V116.049H868.235V120ZM876.034 112.357V120H873.949V112.357H876.034ZM874.995 109.363C875.305 109.363 875.572 109.436 875.795 109.582C876.019 109.723 876.13 109.99 876.13 110.382C876.13 110.769 876.019 111.038 875.795 111.188C875.572 111.334 875.305 111.407 874.995 111.407C874.681 111.407 874.412 111.334 874.189 111.188C873.97 111.038 873.861 110.769 873.861 110.382C873.861 109.99 873.97 109.723 874.189 109.582C874.412 109.436 874.681 109.363 874.995 109.363ZM880.744 123.363C879.678 123.363 878.862 123.176 878.297 122.803C877.736 122.434 877.456 121.914 877.456 121.244C877.456 120.784 877.6 120.399 877.887 120.089C878.174 119.779 878.595 119.558 879.151 119.426C878.937 119.335 878.75 119.187 878.591 118.981C878.431 118.772 878.352 118.551 878.352 118.318C878.352 118.027 878.436 117.785 878.604 117.594C878.773 117.398 879.017 117.206 879.336 117.02C878.935 116.846 878.616 116.568 878.379 116.186C878.146 115.803 878.03 115.352 878.03 114.832C878.03 114.276 878.151 113.804 878.393 113.417C878.639 113.025 878.994 112.727 879.459 112.521C879.928 112.316 880.498 112.214 881.168 112.214C881.309 112.214 881.473 112.223 881.66 112.241C881.847 112.259 882.018 112.28 882.173 112.303C882.332 112.326 882.439 112.344 882.494 112.357H885.16V113.417L883.964 113.725C884.073 113.893 884.155 114.073 884.21 114.265C884.265 114.456 884.292 114.659 884.292 114.873C884.292 115.693 884.005 116.334 883.431 116.794C882.861 117.25 882.068 117.478 881.052 117.478C880.81 117.464 880.582 117.446 880.368 117.423C880.263 117.505 880.184 117.591 880.129 117.683C880.074 117.774 880.047 117.869 880.047 117.97C880.047 118.07 880.088 118.154 880.17 118.223C880.257 118.286 880.384 118.337 880.553 118.373C880.726 118.405 880.94 118.421 881.195 118.421H882.494C883.333 118.421 883.971 118.601 884.408 118.961C884.85 119.321 885.071 119.85 885.071 120.547C885.071 121.44 884.698 122.133 883.95 122.625C883.207 123.117 882.139 123.363 880.744 123.363ZM880.833 122.003C881.33 122.003 881.756 121.955 882.111 121.859C882.471 121.768 882.747 121.636 882.938 121.463C883.13 121.294 883.226 121.091 883.226 120.854C883.226 120.663 883.169 120.51 883.055 120.396C882.945 120.287 882.777 120.21 882.549 120.164C882.326 120.118 882.038 120.096 881.688 120.096H880.607C880.352 120.096 880.122 120.137 879.917 120.219C879.716 120.301 879.557 120.415 879.438 120.561C879.32 120.711 879.261 120.884 879.261 121.08C879.261 121.367 879.397 121.593 879.671 121.757C879.949 121.921 880.336 122.003 880.833 122.003ZM881.168 116.206C881.56 116.206 881.847 116.085 882.029 115.844C882.212 115.602 882.303 115.274 882.303 114.859C882.303 114.399 882.207 114.055 882.016 113.827C881.829 113.595 881.546 113.479 881.168 113.479C880.785 113.479 880.498 113.595 880.307 113.827C880.115 114.055 880.02 114.399 880.02 114.859C880.02 115.274 880.113 115.602 880.3 115.844C880.491 116.085 880.781 116.206 881.168 116.206ZM895.68 112.214C896.546 112.214 897.2 112.437 897.642 112.884C898.089 113.326 898.312 114.037 898.312 115.017V120H896.22V115.536C896.22 114.989 896.127 114.577 895.94 114.299C895.753 114.021 895.464 113.882 895.072 113.882C894.521 113.882 894.129 114.08 893.896 114.477C893.664 114.868 893.548 115.431 893.548 116.165V120H891.463V115.536C891.463 115.172 891.422 114.866 891.34 114.62C891.258 114.374 891.132 114.189 890.964 114.066C890.795 113.943 890.579 113.882 890.314 113.882C889.927 113.882 889.621 113.98 889.398 114.176C889.179 114.367 889.022 114.652 888.926 115.03C888.835 115.404 888.79 115.862 888.79 116.404V120H886.705V112.357H888.298L888.578 113.335H888.694C888.849 113.071 889.043 112.856 889.275 112.692C889.512 112.528 889.772 112.408 890.054 112.33C890.337 112.253 890.624 112.214 890.916 112.214C891.476 112.214 891.95 112.305 892.338 112.487C892.73 112.67 893.03 112.952 893.24 113.335H893.425C893.652 112.943 893.974 112.658 894.388 112.48C894.808 112.303 895.238 112.214 895.68 112.214ZM903.87 112.2C904.895 112.2 905.681 112.424 906.228 112.87C906.775 113.317 907.048 113.996 907.048 114.907V120H905.592L905.189 118.961H905.134C904.915 119.234 904.692 119.458 904.464 119.631C904.236 119.804 903.974 119.932 903.678 120.014C903.382 120.096 903.022 120.137 902.598 120.137C902.147 120.137 901.741 120.05 901.381 119.877C901.026 119.704 900.746 119.439 900.54 119.084C900.335 118.724 900.233 118.268 900.233 117.717C900.233 116.906 900.518 116.309 901.087 115.926C901.657 115.538 902.511 115.324 903.651 115.283L904.977 115.242V114.907C904.977 114.506 904.872 114.212 904.663 114.025C904.453 113.839 904.161 113.745 903.788 113.745C903.418 113.745 903.056 113.798 902.701 113.902C902.345 114.007 901.99 114.139 901.634 114.299L900.944 112.891C901.349 112.676 901.803 112.508 902.304 112.385C902.81 112.262 903.332 112.2 903.87 112.2ZM904.977 116.459L904.17 116.486C903.496 116.505 903.026 116.625 902.762 116.849C902.502 117.072 902.372 117.366 902.372 117.73C902.372 118.049 902.466 118.277 902.653 118.414C902.84 118.546 903.083 118.612 903.384 118.612C903.831 118.612 904.207 118.48 904.512 118.216C904.822 117.951 904.977 117.576 904.977 117.088V116.459Z" fill="#828282"/>
<path d="M808.415 229.621C807.784 230.112 807.14 230.126 806.482 229.662C805.825 229.198 805.605 228.584 805.825 227.82L808.168 220.249L802.206 216.033C801.549 215.569 801.35 214.955 801.611 214.191C801.871 213.427 802.398 213.045 803.193 213.045H810.553L812.937 205.187C813.074 204.805 813.287 204.511 813.575 204.306C813.863 204.102 814.171 204 814.5 204C814.828 204 815.137 204.102 815.424 204.306C815.712 204.511 815.925 204.805 816.062 205.187L818.447 213.045H825.806C826.601 213.045 827.129 213.427 827.39 214.191C827.649 214.955 827.45 215.569 826.793 216.033L820.831 220.249L823.175 227.82C823.394 228.584 823.175 229.198 822.517 229.662C821.859 230.126 821.215 230.112 820.584 229.621L814.5 224.996L808.415 229.621Z" fill="#070707"/>
<path d="M844.415 229.621C843.784 230.112 843.14 230.126 842.482 229.662C841.825 229.198 841.605 228.584 841.825 227.82L844.168 220.249L838.206 216.033C837.549 215.569 837.35 214.955 837.611 214.191C837.871 213.427 838.398 213.045 839.193 213.045H846.553L848.937 205.187C849.074 204.805 849.287 204.511 849.575 204.306C849.863 204.102 850.171 204 850.5 204C850.828 204 851.137 204.102 851.424 204.306C851.712 204.511 851.925 204.805 852.062 205.187L854.447 213.045H861.806C862.601 213.045 863.129 213.427 863.39 214.191C863.649 214.955 863.45 215.569 862.793 216.033L856.831 220.249L859.175 227.82C859.394 228.584 859.175 229.198 858.517 229.662C857.859 230.126 857.215 230.112 856.584 229.621L850.5 224.996L844.415 229.621Z" fill="#070707"/>
<path d="M880.415 229.621C879.784 230.112 879.14 230.126 878.482 229.662C877.825 229.198 877.605 228.584 877.825 227.82L880.168 220.249L874.206 216.033C873.549 215.569 873.35 214.955 873.611 214.191C873.871 213.427 874.398 213.045 875.193 213.045H882.553L884.937 205.187C885.074 204.805 885.287 204.511 885.575 204.306C885.863 204.102 886.171 204 886.5 204C886.828 204 887.137 204.102 887.424 204.306C887.712 204.511 887.925 204.805 888.062 205.187L890.447 213.045H897.806C898.601 213.045 899.129 213.427 899.39 214.191C899.649 214.955 899.45 215.569 898.793 216.033L892.831 220.249L895.175 227.82C895.394 228.584 895.175 229.198 894.517 229.662C893.859 230.126 893.215 230.112 892.584 229.621L886.5 224.996L880.415 229.621Z" fill="#070707"/>
<path d="M916.415 229.621C915.784 230.112 915.14 230.126 914.482 229.662C913.825 229.198 913.605 228.584 913.825 227.82L916.168 220.249L910.206 216.033C909.549 215.569 909.35 214.955 909.611 214.191C909.871 213.427 910.398 213.045 911.193 213.045H918.553L920.937 205.187C921.074 204.805 921.287 204.511 921.575 204.306C921.863 204.102 922.171 204 922.5 204C922.828 204 923.137 204.102 923.424 204.306C923.712 204.511 923.925 204.805 924.062 205.187L926.447 213.045H933.806C934.601 213.045 935.129 213.427 935.39 214.191C935.649 214.955 935.45 215.569 934.793 216.033L928.831 220.249L931.175 227.82C931.394 228.584 931.175 229.198 930.517 229.662C929.859 230.126 929.215 230.112 928.584 229.621L922.5 224.996L916.415 229.621Z" fill="#070707"/>
<path d="M952.415 229.621C951.784 230.112 951.14 230.126 950.482 229.662C949.825 229.198 949.605 228.584 949.825 227.82L952.168 220.249L946.206 216.033C945.549 215.569 945.35 214.955 945.611 214.191C945.871 213.427 946.398 213.045 947.193 213.045H954.553L956.937 205.187C957.074 204.805 957.287 204.511 957.575 204.306C957.863 204.102 958.171 204 958.5 204C958.828 204 959.137 204.102 959.424 204.306C959.712 204.511 959.925 204.805 960.062 205.187L962.447 213.045H969.806C970.601 213.045 971.129 213.427 971.39 214.191C971.649 214.955 971.45 215.569 970.793 216.033L964.831 220.249L967.175 227.82C967.394 228.584 967.175 229.198 966.517 229.662C965.859 230.126 965.215 230.112 964.584 229.621L958.5 224.996L952.415 229.621Z" fill="#070707"/>
</svg>
