<?xml version="1.0" encoding="utf-8"?>
<!-- Svg Vector Icons : http://www.onlinewebfonts.com/icon -->
<!DOCTYPE svg PUBLIC "-//W3C//DTD SVG 1.1//EN" "http://www.w3.org/Graphics/SVG/1.1/DTD/svg11.dtd">
<svg version="1.1" xmlns="http://www.w3.org/2000/svg" xmlns:xlink="http://www.w3.org/1999/xlink" x="0px" y="0px" viewBox="0 0 1000 1000" enable-background="new 0 0 1000 1000" xml:space="preserve">
<metadata> Svg Vector Icons : http://www.onlinewebfonts.com/icon </metadata>
<g><g><g><g><path d="M500,10C229.8,10,10,229.8,10,500c0,270.2,219.8,490,490,490c270.2,0,490-219.8,490-490C990,229.8,770.2,10,500,10z M500,917.7C269.7,917.7,82.3,730.3,82.3,500C82.3,269.7,269.7,82.3,500,82.3c230.3,0,417.6,187.4,417.6,417.6C917.7,730.3,730.3,917.7,500,917.7z"/></g><g><path d="M500,137.1c-19.9,0-36.1,16.2-36.1,36.1v290.6H206.4c-19.9,0-36.1,16.2-36.1,36.2c0,19.9,16.2,36.1,36.1,36.1H500c19.9,0,36.1-16.2,36.1-36.1V173.3C536.1,153.3,519.9,137.1,500,137.1z"/></g></g></g><g></g><g></g><g></g><g></g><g></g><g></g><g></g><g></g><g></g><g></g><g></g><g></g><g></g><g></g><g></g></g>
</svg>