<svg width="26" height="26" viewBox="0 0 26 26" fill="none" xmlns="http://www.w3.org/2000/svg">
<path d="M20.3125 10.5625V7.3125C20.3125 3.27356 17.0389 0 13 0C8.96106 0 5.6875 3.27356 5.6875 7.3125V10.5625C4.34119 10.5625 3.25 11.6537 3.25 13V18.6875C3.25 22.7264 6.52356 26 10.5625 26H15.4375C19.4764 26 22.75 22.7264 22.75 18.6875V13C22.75 11.6529 21.658 10.5625 20.3125 10.5625ZM7.3125 7.3125C7.3125 4.17138 9.85888 1.625 13 1.625C16.1411 1.625 18.6875 4.17138 18.6875 7.3125V10.5625H17.0625V7.31413C17.0625 5.07 15.2441 3.25162 13 3.25162C10.7559 3.25162 8.9375 5.07 8.9375 7.31413V10.5625H7.3125V7.3125ZM16.25 7.3125V10.5625H9.75V7.3125C9.75 5.51769 11.2052 4.0625 13 4.0625C14.7948 4.0625 16.25 5.51769 16.25 7.3125ZM21.125 15.4375V18.6875C21.125 21.8229 18.5729 24.375 15.4375 24.375H10.5625C7.42706 24.375 4.875 21.8229 4.875 18.6875V13C4.875 12.5515 5.239 12.1875 5.6875 12.1875C6.22944 12.1875 6.77056 12.1875 7.3125 12.1875H18.6875C19.2286 12.1875 19.7698 12.1875 20.3125 12.1875C20.7602 12.1875 21.125 12.5515 21.125 13V15.4375ZM13 15.4375C13.897 15.4375 14.625 16.1647 14.625 17.0625C14.625 17.5573 14.3585 18.499 14.0839 19.2416C13.8621 19.8412 13.6354 20.3109 13 20.3109C12.4158 20.3109 12.1379 19.8364 11.9169 19.2335C11.6456 18.4925 11.375 17.5557 11.375 17.0625C11.375 16.1647 12.103 15.4375 13 15.4375Z" fill="#4F4F4F"/>
</svg>
