<svg width="26" height="26" viewBox="0 0 26 26" fill="none" xmlns="http://www.w3.org/2000/svg">
<path d="M25.9382 14.9947L22.6866 2.80231C22.49 2.10925 21.8473 1.625 21.125 1.625H4.875C4.15188 1.625 3.51 2.10925 3.31337 2.80231L0.06175 14.9947C0.0203125 15.1426 0 15.2913 0 15.4375V21.125C0 22.9198 1.45519 24.375 3.25 24.375H22.75C24.5448 24.375 26 22.9198 26 21.125V15.4375C26 15.2913 25.9797 15.1426 25.9382 14.9947ZM24.375 21.125C24.375 22.0204 23.6454 22.75 22.75 22.75H3.25C2.35381 22.75 1.625 22.0204 1.625 21.125V15.4375L4.87581 3.24919H21.1234L24.375 15.4375V21.125ZM19.2904 4.875H6.70963C6.34156 4.875 6.019 5.12281 5.92394 5.47869L3.12488 15.2287C3.06069 15.4733 3.11188 15.7333 3.26625 15.9331C3.42062 16.133 3.65787 16.25 3.90975 16.25H7.62125L8.79694 18.6022C9.07319 19.1523 9.63544 19.5 10.2513 19.5H15.7487C16.3646 19.5 16.926 19.1523 17.2023 18.6022L18.3779 16.25H22.0894C22.3421 16.25 22.5802 16.1322 22.7337 15.9323C22.8873 15.7324 22.9385 15.4724 22.8751 15.2279L20.0761 5.47787C19.981 5.122 19.6584 4.875 19.2904 4.875ZM19.7283 14.625H18.3779C17.7588 14.625 17.2022 14.9679 16.9244 15.5228L15.7487 17.875H10.2513L9.07563 15.5228C8.79775 14.9679 8.24119 14.625 7.62206 14.625H4.33388L6.70963 5.6875H19.2904L21.6661 14.625H19.7283Z" fill="#4F4F4F"/>
</svg>
