<svg width="55" height="124" viewBox="0 0 55 124" fill="none" xmlns="http://www.w3.org/2000/svg">
<path d="M14.1666 79.9997C21.5266 79.9997 27.4999 74.0263 27.4999 66.6663V53.333H14.1666C6.80659 53.333 0.833252 59.3063 0.833252 66.6663C0.833252 74.0263 6.80659 79.9997 14.1666 79.9997Z" fill="#0ACF83"/>
<path d="M0.833252 40.0003C0.833252 32.6403 6.80659 26.667 14.1666 26.667H27.4999V53.3337H14.1666C6.80659 53.3337 0.833252 47.3603 0.833252 40.0003Z" fill="#A259FF"/>
<path d="M0.833252 13.3333C0.833252 5.97333 6.80659 0 14.1666 0H27.4999V26.6667H14.1666C6.80659 26.6667 0.833252 20.6933 0.833252 13.3333Z" fill="#F24E1E"/>
<path d="M27.4999 0H40.8332C48.1932 0 54.1665 5.97333 54.1665 13.3333C54.1665 20.6933 48.1932 26.6667 40.8332 26.6667H27.4999V0Z" fill="#FF7262"/>
<path d="M54.1667 40.0003C54.1667 47.3603 48.1933 53.3337 40.8333 53.3337C33.4733 53.3337 27.5 47.3603 27.5 40.0003C27.5 32.6403 33.4733 26.667 40.8333 26.667C48.1933 26.667 54.1667 32.6403 54.1667 40.0003Z" fill="#1ABCFE"/>
<path d="M9.23492 120H7.14996V110.006H12.8785V111.742H9.23492V114.319H12.6255V116.049H9.23492V120ZM17.0345 112.357V120H14.9495V112.357H17.0345ZM15.9954 109.363C16.3053 109.363 16.5719 109.436 16.7952 109.582C17.0185 109.723 17.1302 109.99 17.1302 110.382C17.1302 110.769 17.0185 111.038 16.7952 111.188C16.5719 111.334 16.3053 111.407 15.9954 111.407C15.6809 111.407 15.4121 111.334 15.1888 111.188C14.97 111.038 14.8606 110.769 14.8606 110.382C14.8606 109.99 14.97 109.723 15.1888 109.582C15.4121 109.436 15.6809 109.363 15.9954 109.363ZM21.7441 123.363C20.6777 123.363 19.862 123.176 19.2969 122.803C18.7363 122.434 18.4561 121.914 18.4561 121.244C18.4561 120.784 18.5996 120.399 18.8867 120.089C19.1738 119.779 19.5954 119.558 20.1514 119.426C19.9372 119.335 19.7503 119.187 19.5908 118.981C19.4313 118.772 19.3516 118.551 19.3516 118.318C19.3516 118.027 19.4359 117.785 19.6045 117.594C19.7731 117.398 20.0169 117.206 20.3359 117.02C19.9349 116.846 19.6159 116.568 19.3789 116.186C19.1465 115.803 19.0303 115.352 19.0303 114.832C19.0303 114.276 19.151 113.804 19.3926 113.417C19.6387 113.025 19.9941 112.727 20.459 112.521C20.9284 112.316 21.498 112.214 22.168 112.214C22.3092 112.214 22.4733 112.223 22.6602 112.241C22.847 112.259 23.0179 112.28 23.1729 112.303C23.3324 112.326 23.4395 112.344 23.4941 112.357H26.1602V113.417L24.9639 113.725C25.0732 113.893 25.1553 114.073 25.21 114.265C25.2646 114.456 25.292 114.659 25.292 114.873C25.292 115.693 25.0049 116.334 24.4307 116.794C23.861 117.25 23.068 117.478 22.0518 117.478C21.8102 117.464 21.5824 117.446 21.3682 117.423C21.2633 117.505 21.1836 117.591 21.1289 117.683C21.0742 117.774 21.0469 117.869 21.0469 117.97C21.0469 118.07 21.0879 118.154 21.1699 118.223C21.2565 118.286 21.3841 118.337 21.5527 118.373C21.7259 118.405 21.9401 118.421 22.1953 118.421H23.4941C24.3327 118.421 24.9707 118.601 25.4082 118.961C25.8503 119.321 26.0713 119.85 26.0713 120.547C26.0713 121.44 25.6976 122.133 24.9502 122.625C24.2074 123.117 23.1387 123.363 21.7441 123.363ZM21.833 122.003C22.3298 122.003 22.7559 121.955 23.1113 121.859C23.4714 121.768 23.7471 121.636 23.9385 121.463C24.1299 121.294 24.2256 121.091 24.2256 120.854C24.2256 120.663 24.1686 120.51 24.0547 120.396C23.9453 120.287 23.7767 120.21 23.5488 120.164C23.3255 120.118 23.0384 120.096 22.6875 120.096H21.6074C21.3522 120.096 21.1221 120.137 20.917 120.219C20.7165 120.301 20.557 120.415 20.4385 120.561C20.32 120.711 20.2607 120.884 20.2607 121.08C20.2607 121.367 20.3975 121.593 20.6709 121.757C20.9489 121.921 21.3363 122.003 21.833 122.003ZM22.168 116.206C22.5599 116.206 22.847 116.085 23.0293 115.844C23.2116 115.602 23.3027 115.274 23.3027 114.859C23.3027 114.399 23.207 114.055 23.0156 113.827C22.8288 113.595 22.5462 113.479 22.168 113.479C21.7852 113.479 21.498 113.595 21.3066 113.827C21.1152 114.055 21.0195 114.399 21.0195 114.859C21.0195 115.274 21.113 115.602 21.2998 115.844C21.4912 116.085 21.7806 116.206 22.168 116.206ZM36.6804 112.214C37.5463 112.214 38.2002 112.437 38.6423 112.884C39.0889 113.326 39.3122 114.037 39.3122 115.017V120H37.2204V115.536C37.2204 114.989 37.127 114.577 36.9402 114.299C36.7533 114.021 36.4639 113.882 36.072 113.882C35.5206 113.882 35.1286 114.08 34.8962 114.477C34.6638 114.868 34.5476 115.431 34.5476 116.165V120H32.4626V115.536C32.4626 115.172 32.4216 114.866 32.3396 114.62C32.2575 114.374 32.1322 114.189 31.9636 114.066C31.795 113.943 31.5785 113.882 31.3142 113.882C30.9268 113.882 30.6215 113.98 30.3982 114.176C30.1794 114.367 30.0222 114.652 29.9265 115.03C29.8353 115.404 29.7898 115.862 29.7898 116.404V120H27.7048V112.357H29.2976L29.5779 113.335H29.6941C29.849 113.071 30.0427 112.856 30.2751 112.692C30.5121 112.528 30.7719 112.408 31.0544 112.33C31.337 112.253 31.6241 112.214 31.9157 112.214C32.4763 112.214 32.9502 112.305 33.3376 112.487C33.7295 112.67 34.0303 112.952 34.24 113.335H34.4245C34.6524 112.943 34.9737 112.658 35.3884 112.48C35.8077 112.303 36.2383 112.214 36.6804 112.214ZM44.8696 112.2C45.895 112.2 46.6811 112.424 47.228 112.87C47.7748 113.317 48.0483 113.996 48.0483 114.907V120H46.5922L46.1889 118.961H46.1342C45.9155 119.234 45.6922 119.458 45.4643 119.631C45.2364 119.804 44.9744 119.932 44.6782 120.014C44.3819 120.096 44.0219 120.137 43.5981 120.137C43.1469 120.137 42.7413 120.05 42.3813 119.877C42.0258 119.704 41.7455 119.439 41.5405 119.084C41.3354 118.724 41.2328 118.268 41.2328 117.717C41.2328 116.906 41.5177 116.309 42.0873 115.926C42.657 115.538 43.5115 115.324 44.6508 115.283L45.977 115.242V114.907C45.977 114.506 45.8722 114.212 45.6625 114.025C45.4529 113.839 45.1612 113.745 44.7875 113.745C44.4184 113.745 44.0561 113.798 43.7006 113.902C43.3452 114.007 42.9897 114.139 42.6342 114.299L41.9438 112.891C42.3494 112.676 42.8028 112.508 43.3041 112.385C43.81 112.262 44.3318 112.2 44.8696 112.2ZM45.977 116.459L45.1703 116.486C44.4959 116.505 44.0265 116.625 43.7621 116.849C43.5024 117.072 43.3725 117.366 43.3725 117.73C43.3725 118.049 43.4659 118.277 43.6528 118.414C43.8396 118.546 44.0834 118.612 44.3842 118.612C44.8308 118.612 45.2068 118.48 45.5121 118.216C45.822 117.951 45.977 117.576 45.977 117.088V116.459Z" fill="#828282"/>
</svg>
