<svg width="26" height="26" viewBox="0 0 26 26" fill="none" xmlns="http://www.w3.org/2000/svg">
<g clip-path="url(#clip0_6_147)">
<path d="M25.9716 12.818C25.9634 12.7839 25.9683 12.7473 25.9553 12.714C25.9504 12.7002 25.9383 12.6929 25.9334 12.6799C25.9253 12.6604 25.9269 12.6384 25.9163 12.6197C23.5601 8.10956 18.4308 4.87825 13.0195 4.87825C7.60745 4.87825 2.47895 8.10469 0.121072 12.6141C0.110509 12.6327 0.112134 12.6547 0.104009 12.6742C0.0983215 12.6872 0.0869465 12.6945 0.0820715 12.7083C0.0690715 12.7416 0.0739465 12.7782 0.0658215 12.8123C0.0511965 12.8732 0.037384 12.9317 0.037384 12.9943C0.037384 13.0569 0.052009 13.1146 0.0658215 13.1763C0.0739465 13.2104 0.0690715 13.247 0.0820715 13.2803C0.0869465 13.2941 0.099134 13.3014 0.104009 13.3144C0.112134 13.3339 0.110509 13.3559 0.121072 13.3746C2.47813 17.8847 7.60745 21.1161 13.0195 21.1161C18.4308 21.1161 23.5601 17.8896 25.9163 13.3802C25.9277 13.3616 25.9261 13.3396 25.9334 13.3201C25.9383 13.3071 25.9504 13.2998 25.9553 13.286C25.9683 13.2527 25.9634 13.2161 25.9716 13.182C25.9854 13.1203 26 13.0617 26 13C26 12.9382 25.9854 12.8789 25.9716 12.818ZM13.0187 19.4902C8.45651 19.4902 3.9902 16.8976 1.76476 12.9943C4.00238 9.08619 8.4622 6.50244 13.0187 6.50244C17.5793 6.50244 22.0464 9.09594 24.2718 12.9984C22.0342 16.9073 17.5752 19.4902 13.0187 19.4902ZM13.0187 9.74919C13.2429 9.74919 13.4233 9.93037 13.4233 10.1554C13.4233 10.3789 13.2421 10.5609 13.0187 10.5609V10.5617C11.6748 10.5617 10.582 11.6545 10.582 12.9967C10.582 13.221 10.4 13.403 10.1766 13.403C9.95313 13.403 9.77032 13.221 9.77032 12.9967C9.77032 11.2052 11.2223 9.75325 13.0138 9.75C13.0154 9.75 13.0171 9.74919 13.0187 9.74919ZM13 7.3125C9.85807 7.3125 7.31251 9.85888 7.31251 13C7.31251 16.1411 9.85888 18.6875 13 18.6875C16.1403 18.6875 18.6875 16.1403 18.6875 13C18.6875 9.85806 16.1403 7.3125 13 7.3125ZM13 17.875C10.3114 17.875 8.12501 15.6886 8.12501 13C8.12501 10.3114 10.3114 8.125 13 8.125C15.6886 8.125 17.875 10.3114 17.875 13C17.875 15.6886 15.6886 17.875 13 17.875Z" fill="#4F4F4F"/>
</g>
<defs>
<clipPath id="clip0_6_147">
<rect width="26" height="26" fill="white"/>
</clipPath>
</defs>
</svg>
