<svg width="26" height="26" viewBox="0 0 26 26" fill="none" xmlns="http://www.w3.org/2000/svg">
<path d="M13.0016 14.4186C15.6902 14.4186 17.8766 12.2314 17.8766 9.54362C17.8766 6.85588 15.6902 4.66862 13.0016 4.66862C10.3131 4.66862 8.12663 6.85506 8.12663 9.54362C8.12663 12.2322 10.3131 14.4186 13.0016 14.4186ZM13.0016 5.48112C15.2425 5.48112 17.0641 7.30275 17.0641 9.54362C17.0641 11.7845 15.2425 13.6061 13.0016 13.6061C10.7608 13.6061 8.93913 11.7845 8.93913 9.54362C8.93913 7.30275 10.7608 5.48112 13.0016 5.48112ZM13 0C7.62288 0 3.25 4.31925 3.25 9.75081C3.25 15.4383 8.12581 21.2566 11.6805 25.3459C11.6935 25.3622 12.2639 26 12.9691 26C12.9707 26 13.0284 26 13.0317 26C13.7361 26 14.3073 25.3622 14.3203 25.3459C17.8766 21.2566 22.7516 15.4391 22.7516 9.75081C22.7516 4.31925 18.3779 0 13 0V0ZM13.0951 24.2799C13.078 24.2962 13.0284 24.3319 12.9854 24.3596C12.9773 24.3376 12.9171 24.2897 12.8806 24.2515C9.90275 20.8252 4.875 15.0426 4.875 9.75081C4.875 5.27069 8.52069 1.625 13 1.625C17.4817 1.625 21.1266 5.27069 21.1266 9.75163C21.1266 15.0426 16.0989 20.8252 13.0951 24.2799Z" fill="#4F4F4F"/>
</svg>
