<svg width="26" height="26" viewBox="0 0 26 26" fill="none" xmlns="http://www.w3.org/2000/svg">
<path d="M22.75 4.0625H3.25C1.45519 4.0625 0 5.5185 0 7.3125V17.875C0 19.6698 1.45519 21.125 3.25 21.125H22.75C24.5448 21.125 26 19.6698 26 17.875V7.3125C26 5.5185 24.5448 4.0625 22.75 4.0625ZM1.625 8.32812L7.31169 12.5938L1.625 16.8594V8.32812ZM24.375 17.875C24.375 18.772 23.6454 19.5 22.75 19.5H3.25C2.35381 19.5 1.625 18.772 1.625 17.875L7.9885 13.1016L11.5375 15.7641C11.9706 16.0875 12.4849 16.2516 13 16.2516C13.5143 16.2516 14.0286 16.0883 14.4617 15.7641L18.0115 13.1016L24.375 17.875ZM24.375 16.8594L18.6875 12.5938L24.375 8.32812V16.8594ZM13.9742 15.1141C13.6906 15.327 13.3542 15.4391 13 15.4391C12.6458 15.4391 12.3086 15.3262 12.025 15.1141L1.625 7.3125C1.625 6.41631 2.35381 5.6875 3.25 5.6875H22.75C23.6454 5.6875 24.375 6.41631 24.375 7.3125L13.9742 15.1141Z" fill="#4F4F4F"/>
</svg>
