<svg width="26" height="26" viewBox="0 0 26 26" fill="none" xmlns="http://www.w3.org/2000/svg">
<g clip-path="url(#clip0_6_112)">
<path d="M26 6.5C26 5.35763 25.2224 4.381 24.1101 4.12425L13.5371 1.68431C13.3599 1.6445 13.1796 1.625 13 1.625C12.8204 1.625 12.6401 1.6445 12.4516 1.68675L1.88987 4.12425C0.77675 4.381 0 5.35763 0 6.5C0 7.64237 0.777562 8.619 1.88906 8.87575L4.0625 9.37706V16.25C4.0625 18.4064 6.53088 20.3125 13 20.3125C19.4691 20.3125 21.9375 18.4064 21.9375 16.25V9.37706L24.1101 8.87575C25.2224 8.619 26 7.64237 26 6.5ZM20.3125 16.25C20.3125 17.1478 17.875 18.6875 13 18.6875C8.125 18.6875 5.6875 17.1478 5.6875 16.25V9.75244L12.4621 11.3157C12.6392 11.3555 12.8204 11.375 13 11.375C13.1796 11.375 13.3608 11.3555 13.5476 11.3132L20.3125 9.75244V16.25ZM13.1828 9.72969C13.1219 9.74269 13.0609 9.75 13 9.75C12.9391 9.75 12.8773 9.74269 12.8172 9.72969L2.25469 7.29219C1.88581 7.20688 1.625 6.87862 1.625 6.5C1.625 6.12138 1.88581 5.79313 2.25469 5.70781L12.8172 3.27031C12.8773 3.25731 12.9382 3.25 13 3.25C13.0618 3.25 13.1227 3.25731 13.1828 3.27031L23.7453 5.70781C24.1134 5.79313 24.375 6.12138 24.375 6.5C24.375 6.87862 24.1134 7.20688 23.7453 7.29219L13.1828 9.72969ZM23.5625 10.5625C23.5625 10.1132 23.9257 9.75 24.375 9.75C24.8235 9.75 25.1875 10.1132 25.1875 10.5625V17.875C25.1875 18.3243 24.8235 18.6875 24.375 18.6875C23.9257 18.6875 23.5625 18.3243 23.5625 17.875V10.5625ZM24.375 19.5C25.272 19.5 26 21.853 26 22.75C26 23.647 25.272 24.375 24.375 24.375C23.4772 24.375 22.75 23.647 22.75 22.75C22.75 21.853 23.4772 19.5 24.375 19.5Z" fill="#4F4F4F"/>
</g>
<defs>
<clipPath id="clip0_6_112">
<rect width="26" height="26" fill="white"/>
</clipPath>
</defs>
</svg>
