<svg class="svg-icon" style="width: 1em; height: 1em;vertical-align: middle;fill: currentColor;overflow: hidden;" 
viewBox="0 0 1024 1024" version="1.1" xmlns="http://www.w3.org/2000/svg">
<path d="M930.133333 753.777778L827.733333 
597.333333v-2.844444L995.555556 512l-167.822223-82.488889V426.666667l102.4-156.444445-187.733333 11.377778 
11.377778-187.733333L597.333333 196.266667h-2.844444L512 28.444444l-82.488889 167.822223H426.666667L270.222222 
93.866667l11.377778 187.733333-187.733333-11.377778L196.266667 426.666667v2.844444L28.444444 512l167.822223 
82.488889v2.844444l-102.4 156.444445 187.733333-11.377778-11.377778 187.733333 156.444445-102.4h2.844444L512 
995.555556l82.488889-167.822223h2.844444l156.444445 102.4-11.377778-187.733333 187.733333 11.377778zM512 
739.555556c-125.155556 0-227.555556-102.4-227.555556-227.555556s102.4-227.555556 227.555556-227.555556 227.555556 
102.4 227.555556 227.555556-102.4 227.555556-227.555556 227.555556z" fill="" />
<path d="M512 341.333333c-93.866667 0-170.666667 76.8-170.666667 170.666667s76.8 170.666667 170.666667 170.666667 
170.666667-76.8 170.666667-170.666667-76.8-170.666667-170.666667-170.666667z" fill="" />
</svg>
