<svg width="42" height="42" fill="none" xmlns="http://www.w3.org/2000/svg"><path d="M35.14 1H6.86A5.866 5.866 0 0 0 1 6.86v28.28A5.866 5.866 0 0 0 6.86 41h28.28A5.867 5.867 0 0 0 41 35.14V6.86A5.866 5.866 0 0 0 35.14 1Zm3.516 34.14a3.52 3.52 0 0 1-3.515 3.516H6.859a3.52 3.52 0 0 1-3.515-3.515V6.859a3.52 3.52 0 0 1 3.515-3.515h28.282a3.52 3.52 0 0 1 3.515 3.515v28.282Z" fill="#070707" stroke="#070707" stroke-width=".5"/><path d="M19.828 17.484a4.693 4.693 0 0 0-4.687-4.687H8.109v16.406h7.032a4.693 4.693 0 0 0 4.687-4.687A4.676 4.676 0 0 0 18.236 21a4.676 4.676 0 0 0 1.592-3.516Zm-2.344 7.032a2.346 2.346 0 0 1-2.343 2.343h-4.688v-4.687h4.688a2.346 2.346 0 0 1 2.343 2.344Zm-7.03-4.688v-4.687h4.687a2.346 2.346 0 0 1 2.343 2.343 2.346 2.346 0 0 1-2.343 2.344h-4.688Zm17.577-2.344a5.866 5.866 0 0 0-5.86 5.86c0 3.23 2.63 5.86 5.86 5.86a5.88 5.88 0 0 0 5.075-2.93l-2.029-1.173a3.53 3.53 0 0 1-3.046 1.758 3.522 3.522 0 0 1-3.315-2.343h9.175v-1.172a5.867 5.867 0 0 0-5.86-5.86Zm-3.315 4.688a3.522 3.522 0 0 1 3.315-2.344c1.528 0 2.831.98 3.315 2.344h-6.63Zm-1.372-9.375h9.375v2.344h-9.375v-2.344Z" fill="#070707" stroke="#070707" stroke-width=".5"/></svg>