<svg width="40" height="40" fill="none" xmlns="http://www.w3.org/2000/svg"><path d="m30.974 7.123.317-.39-.39-.315A17.271 17.271 0 0 0 20 2.577c-1.45 0-2.855.198-4.186.524l-.741.18.462.608c1.422 1.87 3.465 4.696 5.912 9.122l.207.373.401-.145c4.627-1.68 7.4-4.25 8.92-6.116ZM13.28 4.357l-.243-.314-.36.166A17.37 17.37 0 0 0 3.22 15.327l-.17.614.637.02c2.53.077 8.581-.04 15.286-1.795l.629-.165-.321-.566c-2.601-4.584-4.79-7.517-6.001-9.078Zm19.898 4.259-.384-.446-.378.45c-1.694 2.022-4.636 4.649-9.296 6.432l-.516.197.248.494a72.06 72.06 0 0 1 2.865 6.426l.144.374.396-.06a40.197 40.197 0 0 1 8.84-.322c.572.046.942.098 1.371.16l.282.039.51.07.055-.511c.07-.631.11-1.265.11-1.92 0-4.357-1.615-8.327-4.247-11.383Zm-12.424 7.627-.186-.364-.393.11c-7.892 2.192-14.844 2.125-17.01 2.04l-.48-.02-.038.48-.003.034a18.65 18.65 0 0 0-.076 1.486c0 5.238 2.318 9.91 5.97 13.106l.367.322.33-.36a50.309 50.309 0 0 1 3.637-3.61h.002c2.809-2.532 6.425-5.213 10.365-6.383l.526-.156-.203-.509a73.674 73.674 0 0 0-2.808-6.176Zm9.72 7.9h-.006a39.816 39.816 0 0 0-3.253.293l-.6.078.19.575c.945 2.844 1.726 5.856 2.231 8.989l.125.776.65-.442a17.341 17.341 0 0 0 6.871-9.386l.17-.574-.594-.066c-1.493-.164-3.385-.33-5.785-.243Zm-5.799 1.182-.154-.446-.455.13c-3.454.982-7.07 3.531-9.812 5.991-1.324 1.179-2.394 2.298-3.252 3.214l-.427.456.537.317a17.407 17.407 0 0 0 8.88 2.434c2.444 0 4.75-.505 6.857-1.395l.354-.15-.053-.38c-.495-3.574-1.37-6.98-2.475-10.17ZM.5 20C.5 9.257 9.257.5 20 .5s19.5 8.757 19.5 19.499c0 10.743-8.757 19.499-19.5 19.499S.5 30.742.5 19.999Z" fill="#070707" stroke="#070707"/></svg>