<svg width="40" height="40" fill="none" xmlns="http://www.w3.org/2000/svg"><path d="M11.615.51h.5V.5h16.28C34.511.5 39.5 5.495 39.5 11.612v16.774c0 6.117-4.988 11.112-11.096 11.112H11.615C5.496 39.498.5 34.511.5 28.405V11.622C.5 5.506 5.497.51 11.615.51ZM2.577 11.63v16.785a9.002 9.002 0 0 0 9.038 9.017h16.789a9.002 9.002 0 0 0 9.02-9.036V11.622a9.004 9.004 0 0 0-9.03-9.036H11.615a9.02 9.02 0 0 0-9.038 9.044ZM31.279 7.7c0-.58.459-1.038 1.038-1.038.58 0 1.039.458 1.039 1.038a1.03 1.03 0 0 1-1.039 1.038A1.03 1.03 0 0 1 31.28 7.7ZM9.74 20.004c0-5.645 4.623-10.266 10.27-10.266 5.647 0 10.269 4.62 10.269 10.266 0 5.645-4.622 10.266-10.27 10.266-5.646 0-10.269-4.621-10.269-10.266Zm18.462 0a8.165 8.165 0 0 0-8.192-8.19 8.165 8.165 0 0 0-8.193 8.19 8.165 8.165 0 0 0 8.193 8.19 8.165 8.165 0 0 0 8.192-8.19Z" fill="#070707" stroke="#070707"/></svg>