<svg width="42" height="42" fill="none" xmlns="http://www.w3.org/2000/svg"><path d="M35.14 1H6.86A5.866 5.866 0 0 0 1 6.86v28.28A5.866 5.866 0 0 0 6.86 41h28.28A5.867 5.867 0 0 0 41 35.14V6.86A5.866 5.866 0 0 0 35.14 1Zm3.516 34.14a3.52 3.52 0 0 1-3.515 3.516H6.859a3.52 3.52 0 0 1-3.515-3.515V6.859a3.52 3.52 0 0 1 3.515-3.515h28.282a3.52 3.52 0 0 1 3.515 3.515v28.282Z" fill="#070707" stroke="#070707" stroke-width=".5"/><mask id="linkedin__a" fill="#fff"><path d="M32.02 29.714h-4.296v-7.122a5.77 5.77 0 0 0-.161-1.456c-.514-1.976-2.732-1.86-3.614-.924-.444.47-.734 1.003-.746 1.66-.003.157-.012.314-.012.47v7.371H18.9V16.496h4.287v1.773l.035.015.092-.123c.43-.593.923-1.117 1.58-1.473.732-.396 1.524-.53 2.347-.506.892.026 1.738.225 2.5.701.979.61 1.574 1.504 1.923 2.576.272.835.361 1.696.362 2.569.002 2.51.001 5.02 0 7.531 0 .05-.004.098-.007.155Z"/></mask><path d="M32.02 29.714h-4.296v-7.122a5.77 5.77 0 0 0-.161-1.456c-.514-1.976-2.732-1.86-3.614-.924-.444.47-.734 1.003-.746 1.66-.003.157-.012.314-.012.47v7.371H18.9V16.496h4.287v1.773l.035.015.092-.123c.43-.593.923-1.117 1.58-1.473.732-.396 1.524-.53 2.347-.506.892.026 1.738.225 2.5.701.979.61 1.574 1.504 1.923 2.576.272.835.361 1.696.362 2.569.002 2.51.001 5.02 0 7.531 0 .05-.004.098-.007.155Z" fill="#070707"/><path d="M32.02 29.714v.03h.03v-.029l-.03-.001Zm-4.296 0h-.031v.03h.03v-.03Zm0-7.122h.03-.03Zm-.161-1.456.03-.007-.03.007Zm-3.614-.924.022.021-.022-.02Zm-.746 1.66h-.03.03Zm-.012.47h.03-.03Zm0 7.37v.031h.03v-.03h-.03Zm-4.29 0h-.03v.031h.03v-.03Zm0-13.216v-.03h-.03v.03h.03Zm4.287 0h.031v-.03h-.03v.03Zm0 1.773h-.03v.02l.018.008.012-.028Zm.035.015-.012.028.022.01.014-.02-.024-.018Zm.092-.123.025.018-.025-.018Zm1.58-1.473.014.027-.015-.026Zm2.347-.506.001-.03v.03Zm2.5.701.017-.025-.016.025Zm1.923 2.576-.029.01.03-.01Zm.362 2.569h.03-.03Zm0 7.531h-.03.03Zm-.007.124h-4.296v.061h4.296v-.06Zm-4.266.03v-.196h-.061v.197h.061Zm0-.196v-6.925h-.06l-.001 6.925h.061Zm0-6.925c0-.493-.036-.98-.162-1.463l-.059.015c.124.476.16.958.16 1.448h.061Zm-.162-1.463c-.26-1.001-.953-1.475-1.694-1.577-.738-.103-1.523.163-1.972.64l.045.041c.434-.46 1.199-.72 1.919-.62.717.099 1.39.556 1.643 1.531l.06-.015Zm-3.666-.938c-.447.475-.741 1.014-.753 1.68l.06.002c.013-.648.298-1.173.738-1.64l-.045-.042Zm-.753 1.68c-.003.155-.012.315-.012.47h.06c0-.156.01-.31.013-.468l-.062-.001Zm-.012.47-.001 7.169h.061v-7.168h-.06Zm-.001 7.169v.203h.061v-.203h-.061Zm.03.172h-4.287v.061h4.287v-.061Zm-4.258.03V16.497h-.06v13.216h.06Zm-.03-13.185h4.286v-.061h-4.286v.061Zm4.256-.03v1.771h.061v-1.772h-.061Zm.018 1.8.035.015.024-.056-.034-.015-.025.056Zm.071.005.093-.123-.05-.036-.092.123.05.036Zm.093-.123c.428-.59.919-1.112 1.569-1.464l-.03-.053c-.66.358-1.158.887-1.589 1.48l.05.037Zm1.569-1.464c.727-.393 1.513-.526 2.332-.502l.002-.061c-.827-.024-1.625.11-2.363.51l.029.053Zm2.332-.502c.888.026 1.729.224 2.486.696l.032-.051c-.768-.48-1.62-.68-2.516-.706l-.002.06Zm2.486.696c.97.606 1.562 1.493 1.91 2.56l.057-.02c-.35-1.077-.95-1.977-1.935-2.591l-.032.051Zm1.91 2.56c.27.83.359 1.688.36 2.559h.06c0-.875-.09-1.74-.363-2.579l-.058.02Zm.36 2.559c.002 2.51 0 5.02 0 7.531h.061c0-2.51.002-5.021 0-7.532h-.061Zm0 7.531c0 .048-.004.095-.007.153l.06.003c.004-.055.008-.106.008-.156h-.06Z" fill="#070707" mask="url(#linkedin__a)"/><path d="M16.266 29.705H12.03V16.508h4.237v13.196ZM14.33 9.93c.669-.002 1.238.234 1.641.636.403.401.64.97.643 1.64.002.662-.237 1.226-.646 1.625-.408.4-.988.634-1.669.634-1.328.001-2.274-.94-2.276-2.264-.002-1.325.957-2.27 2.308-2.272Z" fill="#070707" stroke="#070707" stroke-width=".031"/></svg>